<?xml version="1.0" encoding="UTF-8"?>
<!DOCTYPE svg PUBLIC "-//W3C//DTD SVG 1.1//EN" "http://www.w3.org/Graphics/SVG/1.1/DTD/svg11.dtd">
<!-- Creator: CorelDRAW X8 -->
<svg xmlns="http://www.w3.org/2000/svg" xml:space="preserve" width="45.4658mm" height="14.3932mm" version="1.1" style="shape-rendering:geometricPrecision; text-rendering:geometricPrecision; image-rendering:optimizeQuality; fill-rule:evenodd; clip-rule:evenodd"
viewBox="0 0 4547 1439"
 xmlns:xlink="http://www.w3.org/1999/xlink">
 <defs>
  <style type="text/css">
   <![CDATA[
    .str0 {stroke:#C5C6C6;stroke-width:7.62}
    .fil0 {fill:#FEFEFE}
    .fil2 {fill:#008FB8}
    .fil1 {fill:#C5C6C6}
    .fil3 {fill:#C5C6C6;fill-rule:nonzero}
   ]]>
  </style>
 </defs>
 <g id="Layer_x0020_1">
  <metadata id="CorelCorpID_0Corel-Layer"/>
  <rect class="fil0" width="4547" height="1439"/>
  <path class="fil1" d="M1289 995l0 -224 -716 0c-60,0 -109,-19 -152,-61l-1 -1 0 0c-40,-43 -61,-94 -61,-152 0,-60 19,-110 62,-153l0 0 1 0c42,-40 93,-61 151,-61l736 0c60,0 109,19 152,61l1 1 0 0c40,43 61,94 61,152l0 436 224 0 0 -436c0,-59 -10,-117 -34,-171 -23,-51 -54,-99 -94,-139l-1 0 0 -1c-39,-41 -87,-71 -139,-93 -54,-24 -112,-34 -170,-34l-736 0c-58,0 -116,10 -170,34 -52,22 -100,54 -140,94l0 0 0 0c-42,39 -71,88 -94,139 -24,54 -34,112 -34,171 0,59 10,117 34,171 23,51 54,99 94,139l1 0 0 1c39,41 87,71 139,93 54,24 112,34 170,34l716 0z"/>
  <path class="fil1" d="M1850 995l224 0 0 -436c0,-60 19,-109 62,-152l1 -1 0 0c42,-40 93,-61 152,-61l479 0 0 -224 -479 0c-59,0 -117,10 -171,34 -52,23 -99,54 -139,94l-1 0 0 1c-41,39 -71,87 -94,139 -23,53 -34,112 -34,170l0 436z"/>
  <polygon class="fil1" points="3195,121 2884,121 3320,559 2884,995 3195,995 3476,714 3757,995 4068,995 3631,559 4068,121 3757,121 3476,402 "/>
  <polygon class="fil1" points="4179,995 4403,995 4403,328 4179,328 "/>
  <polygon class="fil2" points="4179,226 4403,226 4403,121 4179,121 "/>
  <path class="fil3 str0" d="M1673 1324l9 0 0 -203 57 0 0 -7 -123 0 0 7 57 0 0 203zm209 -74c1,-22 -8,-45 -25,-60 -14,-13 -34,-20 -54,-20 -45,0 -79,34 -79,79 0,34 22,79 79,79 15,0 30,-4 43,-11 13,-8 24,-20 30,-36l-8 0c-12,25 -37,40 -65,40 -29,0 -71,-22 -71,-71l150 0zm-150 -8c2,-38 34,-65 71,-65 36,-1 69,29 71,65l-142 0zm316 35c-8,22 -32,43 -66,44 -39,0 -72,-29 -72,-72 0,-21 9,-41 21,-52 16,-14 30,-20 51,-20 23,0 54,12 66,45l9 0c-12,-35 -44,-52 -75,-52 -46,0 -79,34 -79,79 0,38 27,79 80,79 34,0 63,-21 74,-51l-9 0zm41 47l8 0 0 -87c0,-39 25,-59 61,-60 41,0 61,26 61,66l0 81 8 0 0 -81c0,-45 -22,-72 -67,-73 -27,-1 -53,10 -63,36 0,-12 0,-22 0,-33l-8 0 0 151zm172 -75c0,45 34,79 79,79 45,0 80,-34 80,-79 0,-45 -35,-79 -80,-79 -45,0 -79,34 -79,79l0 0zm8 0c0,-41 31,-72 71,-72 41,0 72,31 72,72 0,41 -31,72 -72,72 -40,0 -71,-31 -71,-72l0 0zm185 75l8 0 0 -210 -8 0 0 210zm41 -75c0,45 34,79 80,79 45,0 79,-34 79,-79 0,-45 -34,-79 -79,-79 -46,0 -80,34 -80,79l0 0zm8 0c0,-41 31,-72 72,-72 40,0 71,31 71,72 0,41 -31,72 -71,72 -41,0 -72,-31 -72,-72l0 0zm333 -76l-8 0 0 40c-8,-21 -34,-43 -71,-43 -49,0 -80,37 -80,79 0,41 30,79 80,79 32,0 57,-16 71,-44l0 25c0,44 -34,72 -70,72 -13,0 -30,-4 -44,-16 -11,-8 -16,-17 -20,-23l-9 0c13,30 44,47 74,47 12,0 31,-5 47,-17 17,-13 30,-33 30,-65l0 -134zm-151 76c0,-43 32,-72 72,-72 27,0 45,12 56,26 11,15 16,32 16,45 0,20 -8,38 -20,51 -13,14 -30,22 -51,22 -49,0 -72,-38 -73,-72l0 0zm195 -109l8 0 0 -26 -8 0 0 26zm0 184l8 0 0 -151 -8 0 0 151zm200 -151l-8 0 0 40c-8,-21 -34,-43 -71,-43 -48,0 -79,37 -79,79 0,41 30,79 79,79 32,0 57,-16 71,-43l0 39 8 0 0 -151zm-150 76c0,-43 32,-72 71,-72 31,0 56,18 67,44 3,8 5,17 5,26 0,9 -2,18 -5,27 -9,27 -34,47 -66,47 -49,0 -72,-38 -72,-72l0 0zm418 1c1,-22 -8,-45 -25,-60 -14,-13 -34,-20 -54,-20 -45,0 -79,34 -79,79 0,34 22,79 79,79 15,0 30,-4 43,-11 13,-8 23,-20 30,-36l-9 0c-12,25 -36,40 -64,40 -29,0 -71,-22 -71,-71l150 0zm-150 -8c2,-38 34,-65 71,-65 35,-1 69,29 71,65l-142 0zm454 -82c-19,-31 -57,-50 -96,-50 -60,0 -109,46 -109,109 0,63 49,109 109,109 47,0 86,-26 103,-62 5,-9 8,-20 9,-31l-135 0 0 8 125 0c-3,20 -16,39 -34,53 -17,15 -41,24 -68,24 -55,0 -100,-43 -100,-101 0,-58 45,-101 100,-101 21,0 40,5 56,15 11,7 21,16 30,27l10 0zm193 90c2,-22 -8,-45 -24,-60 -15,-13 -34,-20 -54,-20 -45,0 -80,34 -80,79 0,34 22,79 79,79 16,0 30,-4 43,-11 13,-8 24,-20 31,-36l-9 0c-12,25 -37,40 -64,40 -30,0 -71,-22 -72,-71l150 0zm-149 -8c2,-38 33,-65 71,-65 35,-1 69,29 70,65l-141 0zm258 -33c0,-26 -18,-39 -40,-39 -22,0 -41,14 -41,39 1,26 18,32 41,39 24,5 36,15 36,36 1,19 -13,37 -36,37 -22,0 -38,-14 -38,-39l-8 0c-2,28 21,46 46,46 26,0 46,-21 44,-45 -1,-32 -24,-38 -44,-43 -21,-6 -32,-13 -33,-31 -1,-18 13,-32 33,-32 16,0 32,9 32,32l8 0zm57 115l8 0 0 -143 38 0 0 -8 -38 0 0 -59 -8 0 0 59 -34 0 0 8 34 0 0 143zm208 -151l-8 0 0 40c-8,-21 -34,-43 -70,-43 -49,0 -80,37 -80,79 0,41 30,79 80,79 31,0 57,-16 70,-43l0 39 8 0 0 -151zm-150 76c0,-43 32,-72 72,-72 30,0 56,18 66,44 3,8 5,17 5,26 0,9 -1,18 -4,27 -10,27 -34,47 -67,47 -48,0 -71,-38 -72,-72l0 0zm123 -120c-5,6 -13,10 -22,10 -8,0 -15,-2 -22,-5 -7,-3 -17,-6 -27,-6 -10,0 -20,3 -27,11l5 6c5,-6 13,-9 22,-9 9,0 15,2 22,5 8,3 18,5 27,5 10,0 20,-3 28,-11l-6 -6zm61 120c0,45 34,79 79,79 46,0 80,-34 80,-79 0,-45 -34,-79 -80,-79 -45,0 -79,34 -79,79l0 0zm8 0c0,-41 31,-72 71,-72 41,0 72,31 72,72 0,41 -31,72 -72,72 -40,0 -71,-31 -71,-72l0 0z"/>
 </g>
</svg>
