<?xml version="1.0" encoding="UTF-8" standalone="no"?>
<!-- Generator: Adobe Illustrator 15.1.0, SVG Export Plug-In . SVG Version: 6.00 Build 0)  -->

<svg
   xmlns:i="&amp;#38;#38;ns_ai;"
   xmlns:dc="http://purl.org/dc/elements/1.1/"
   xmlns:cc="http://creativecommons.org/ns#"
   xmlns:rdf="http://www.w3.org/1999/02/22-rdf-syntax-ns#"
   xmlns:svg="http://www.w3.org/2000/svg"
   xmlns="http://www.w3.org/2000/svg"
   xmlns:sodipodi="http://sodipodi.sourceforge.net/DTD/sodipodi-0.dtd"
   xmlns:inkscape="http://www.inkscape.org/namespaces/inkscape"
   version="1.1"
   x="0px"
   y="0px"
   width="595.28px"
   height="841.89px"
   viewBox="0 0 595.28 841.89"
   enable-background="new 0 0 595.28 841.89"
   xml:space="preserve"
   id="svg114"
   sodipodi:docname="galo_ubuntu_vectorial.svg"
   inkscape:version="0.92.2 (5c3e80d, 2017-08-06)"><metadata
     id="metadata120"><rdf:RDF><cc:Work
         rdf:about=""><dc:format>image/svg+xml</dc:format><dc:type
           rdf:resource="http://purl.org/dc/dcmitype/StillImage" /><dc:title /></cc:Work></rdf:RDF></metadata><defs
     id="defs118" /><sodipodi:namedview
     pagecolor="#ffffff"
     bordercolor="#666666"
     borderopacity="1"
     objecttolerance="10"
     gridtolerance="10"
     guidetolerance="10"
     inkscape:pageopacity="0"
     inkscape:pageshadow="2"
     inkscape:window-width="1920"
     inkscape:window-height="1013"
     id="namedview116"
     showgrid="false"
     inkscape:zoom="2.8208776"
     inkscape:cx="210.44423"
     inkscape:cy="412.04626"
     inkscape:window-x="-9"
     inkscape:window-y="-9"
     inkscape:window-maximized="1"
     inkscape:current-layer="svg114" /><g
     id="g132"
     transform="translate(-9.2990131,-10.419365)"
     inkscape:export-xdpi="96"
     inkscape:export-ydpi="96"><g
       inkscape:export-ydpi="96"
       inkscape:export-xdpi="96"
       transform="matrix(0.77541123,0.51010913,-0.51010913,0.77541123,75.166228,-259.97199)"
       id="ubuntu_x5F_pt"><g
         id="g22"><path
           style="fill:#a54358"
           inkscape:connector-curvature="0"
           id="path2"
           d="m 456.412,582.564 2.474,-2.285 -2.653,-4.267 2.771,-2.558 2.651,4.264 1.549,-1.428 2.263,2.45 -2.017,1.862 1.919,3.089 2.521,-2.328 2.263,2.452 -2.99,2.761 2.652,4.268 -2.772,2.561 -2.651,-4.267 -2.471,2.283 2.652,4.265 -2.774,2.562 -2.651,-4.266 -1.548,1.431 -2.264,-2.452 2.021,-1.865 -1.922,-3.088 -2.521,2.33 -2.265,-2.449 2.993,-2.766 -2.652,-4.265 2.771,-2.561 z m 3.713,5.972 2.473,-2.284 -1.92,-3.087 -2.472,2.284 z" /><path
           style="fill:#a54358"
           inkscape:connector-curvature="0"
           id="path4"
           d="m 485.381,575.754 c -0.396,0.651 -0.956,1.441 -1.685,2.365 -0.728,0.92 -1.56,1.814 -2.499,2.683 -0.952,0.881 -1.86,1.484 -2.729,1.812 -0.869,0.33 -1.702,0.435 -2.495,0.313 -0.798,-0.119 -1.569,-0.428 -2.318,-0.924 -0.745,-0.497 -1.474,-1.127 -2.18,-1.895 l -5.771,-6.244 3.177,-2.934 5.415,5.862 c 0.944,1.021 1.761,1.638 2.452,1.844 0.692,0.202 1.403,-0.035 2.145,-0.72 0.224,-0.208 0.457,-0.444 0.691,-0.7 0.238,-0.258 0.444,-0.491 0.613,-0.707 l -7.991,-8.651 3.175,-2.934 z" /><path
           style="fill:#a54358"
           inkscape:connector-curvature="0"
           id="path6"
           d="m 493.966,558.141 c 0.826,0.896 1.443,1.826 1.852,2.796 0.405,0.969 0.596,1.938 0.572,2.909 -0.026,0.972 -0.272,1.93 -0.741,2.876 -0.467,0.947 -1.164,1.848 -2.087,2.701 -0.385,0.354 -0.802,0.707 -1.254,1.058 -0.454,0.352 -0.905,0.686 -1.365,1.004 -0.457,0.316 -0.906,0.609 -1.35,0.871 -0.44,0.264 -0.846,0.482 -1.205,0.659 l -14.474,-15.666 2.704,-3.444 5.158,5.584 c 0.212,-0.484 0.468,-0.944 0.774,-1.387 0.303,-0.438 0.678,-0.862 1.119,-1.271 0.792,-0.732 1.625,-1.245 2.492,-1.531 0.866,-0.289 1.743,-0.366 2.629,-0.237 0.885,0.131 1.764,0.459 2.639,0.978 0.881,0.521 1.723,1.222 2.537,2.1 z m -3.32,2.91 c -1.89,-2.046 -3.588,-2.374 -5.093,-0.984 -0.328,0.306 -0.614,0.646 -0.853,1.024 -0.242,0.384 -0.4,0.727 -0.481,1.041 l 5.335,5.775 c 0.183,-0.116 0.404,-0.276 0.665,-0.476 0.259,-0.202 0.533,-0.436 0.819,-0.697 0.865,-0.8 1.243,-1.702 1.132,-2.709 -0.108,-1.003 -0.618,-1.995 -1.524,-2.974 z" /><path
           style="fill:#a54358"
           inkscape:connector-curvature="0"
           id="path8"
           d="m 510.813,552.26 c -0.399,0.657 -0.961,1.444 -1.688,2.368 -0.728,0.92 -1.561,1.816 -2.498,2.683 -0.955,0.88 -1.863,1.484 -2.732,1.813 -0.867,0.33 -1.701,0.433 -2.495,0.311 -0.798,-0.117 -1.569,-0.428 -2.315,-0.923 -0.747,-0.494 -1.476,-1.126 -2.184,-1.892 l -5.771,-6.244 3.179,-2.936 5.417,5.862 c 0.943,1.021 1.759,1.64 2.45,1.843 0.69,0.204 1.404,-0.035 2.144,-0.718 0.228,-0.209 0.457,-0.443 0.693,-0.703 0.236,-0.257 0.443,-0.49 0.613,-0.705 l -7.992,-8.652 3.174,-2.932 z" /><path
           style="fill:#a54358"
           inkscape:connector-curvature="0"
           id="path10"
           d="m 504.145,539.059 c 0.4,-0.652 0.962,-1.444 1.688,-2.364 0.727,-0.926 1.561,-1.817 2.496,-2.687 0.952,-0.877 1.858,-1.484 2.722,-1.822 0.862,-0.334 1.688,-0.445 2.478,-0.334 0.79,0.116 1.554,0.413 2.286,0.894 0.732,0.481 1.454,1.106 2.163,1.872 l 5.85,6.329 -3.177,2.937 -5.494,-5.946 c -0.945,-1.025 -1.749,-1.625 -2.412,-1.805 -0.663,-0.175 -1.367,0.079 -2.105,0.762 -0.227,0.211 -0.457,0.444 -0.695,0.699 -0.236,0.258 -0.439,0.494 -0.612,0.708 l 7.993,8.651 -3.175,2.935 z" /><path
           style="fill:#a54358"
           inkscape:connector-curvature="0"
           id="path12"
           d="m 513.663,524.384 2.703,-3.447 3.052,3.305 3.814,-3.522 2.441,2.641 -3.814,3.523 3.644,3.943 c 0.617,0.669 1.223,1.095 1.824,1.274 0.607,0.182 1.261,-0.056 1.974,-0.715 0.339,-0.313 0.66,-0.669 0.965,-1.069 0.303,-0.397 0.552,-0.79 0.742,-1.182 l 2.732,2.062 c -0.237,0.509 -0.539,1.039 -0.903,1.584 -0.364,0.55 -0.887,1.136 -1.568,1.768 -0.867,0.8 -1.692,1.346 -2.478,1.639 -0.785,0.29 -1.543,0.38 -2.271,0.276 -0.728,-0.102 -1.434,-0.39 -2.122,-0.864 -0.685,-0.472 -1.361,-1.07 -2.034,-1.796 z" /><path
           style="fill:#a54358"
           inkscape:connector-curvature="0"
           id="path14"
           d="m 545.385,520.322 c -0.397,0.653 -0.96,1.444 -1.688,2.367 -0.727,0.919 -1.56,1.815 -2.497,2.68 -0.953,0.882 -1.863,1.487 -2.731,1.813 -0.867,0.331 -1.701,0.435 -2.495,0.312 -0.798,-0.116 -1.571,-0.428 -2.318,-0.922 -0.742,-0.495 -1.474,-1.126 -2.183,-1.894 l -5.767,-6.245 3.173,-2.934 5.417,5.861 c 0.945,1.023 1.764,1.638 2.452,1.846 0.69,0.202 1.405,-0.036 2.144,-0.72 0.228,-0.209 0.46,-0.444 0.693,-0.699 0.237,-0.26 0.442,-0.494 0.615,-0.707 l -7.995,-8.651 3.176,-2.935 z" /><path
           style="fill:#a54358"
           inkscape:connector-curvature="0"
           id="path16"
           d="m 540.557,511.033 6.183,-5.712 2.654,2.877 -6.18,5.712 z" /><path
           style="fill:#a54358"
           inkscape:connector-curvature="0"
           id="path18"
           d="m 561.215,496.016 c 0.8,0.869 1.422,1.756 1.866,2.663 0.443,0.909 0.693,1.808 0.755,2.701 0.06,0.893 -0.086,1.765 -0.433,2.611 -0.349,0.847 -0.92,1.642 -1.715,2.375 -0.441,0.408 -0.896,0.746 -1.357,1.016 -0.461,0.267 -0.941,0.488 -1.443,0.658 l 3.899,4.221 -3.175,2.935 -13.646,-14.77 c 0.205,-0.347 0.455,-0.73 0.752,-1.153 0.297,-0.419 0.624,-0.844 0.977,-1.272 0.354,-0.435 0.72,-0.86 1.109,-1.28 0.383,-0.425 0.77,-0.812 1.152,-1.167 0.924,-0.854 1.879,-1.477 2.856,-1.868 0.98,-0.395 1.953,-0.566 2.917,-0.521 0.963,0.042 1.912,0.307 2.844,0.788 0.933,0.481 1.813,1.167 2.642,2.063 z m -3.164,3.081 c -0.905,-0.982 -1.85,-1.562 -2.836,-1.743 -0.985,-0.183 -1.909,0.124 -2.777,0.926 -0.282,0.262 -0.537,0.518 -0.76,0.76 -0.222,0.243 -0.396,0.454 -0.527,0.624 l 5.298,5.736 c 0.316,-0.06 0.673,-0.19 1.073,-0.399 0.396,-0.211 0.761,-0.464 1.089,-0.767 1.504,-1.393 1.32,-3.103 -0.56,-5.137 z" /><path
           style="fill:#a54358"
           inkscape:connector-curvature="0"
           id="path20"
           d="m 555.8,485.455 2.702,-3.445 3.052,3.305 3.816,-3.524 2.439,2.641 -3.814,3.523 3.643,3.948 c 0.619,0.666 1.228,1.091 1.827,1.271 0.607,0.181 1.261,-0.059 1.97,-0.714 0.342,-0.315 0.664,-0.671 0.969,-1.071 0.303,-0.396 0.551,-0.789 0.741,-1.181 l 2.733,2.062 c -0.236,0.508 -0.54,1.038 -0.902,1.584 -0.364,0.547 -0.889,1.136 -1.571,1.765 -0.865,0.803 -1.691,1.349 -2.476,1.638 -0.785,0.292 -1.542,0.384 -2.27,0.279 -0.729,-0.101 -1.437,-0.39 -2.124,-0.862 -0.685,-0.473 -1.362,-1.072 -2.032,-1.798 z" /></g></g><g
       inkscape:export-ydpi="96"
       inkscape:export-xdpi="96"
       transform="matrix(1.163146,0,0,1.163146,-19.487809,-69.718269)"
       id="g414"><g
         id="galo_x5F_vectorial"
         transform="matrix(0.06037982,0,0,0.06037982,87.412371,393.41603)"
         inkscape:export-xdpi="96"
         inkscape:export-ydpi="96"><linearGradient
           id="SVGID_1_"
           gradientUnits="userSpaceOnUse"
           x1="301.5918"
           y1="649.06543"
           x2="228.6351"
           y2="305.83109"><stop
             offset="0"
             style="stop-color:#8C315F"
             id="stop25" /><stop
             offset="0.0342"
             style="stop-color:#92345D"
             id="stop27" /><stop
             offset="0.1654"
             style="stop-color:#A83D54"
             id="stop29" /><stop
             offset="0.3035"
             style="stop-color:#BB454B"
             id="stop31" /><stop
             offset="0.4487"
             style="stop-color:#CA4C41"
             id="stop33" /><stop
             offset="0.604"
             style="stop-color:#D65039"
             id="stop35" /><stop
             offset="0.7764"
             style="stop-color:#DD5434"
             id="stop37" /><stop
             offset="1"
             style="stop-color:#E05533"
             id="stop39" /></linearGradient><path
           d="m 170.95,559.324 c 0,0 65.315,92.801 66.815,94.738 1.5,1.937 3.279,5.19 7.012,7.079 -4.355,-2.548 -5.371,-5.501 -1.512,-7.517 2.023,-1.057 41.451,-21.053 71.88,-36.604 18.781,-9.599 34.117,-17.574 35.167,-18.146 2.75,-1.5 4.238,-2.877 6.426,-5.939 2.188,-3.062 27.887,-39.873 29.512,-42.311 2.427,-3.641 2.576,-6.263 1.5,-11.563 -0.813,-4 -41.504,-204.791 -41.504,-204.791 0,0 -51.813,93.022 -53.725,96.343 -0.917,1.594 -1.709,4.344 0.416,6.719 2.125,2.375 3.625,3.62 3.625,3.62 l -31.625,7.088 -56.845,-137.844 -24.353,73.229 118.457,169.642 59.429,-64.006 c 0,0 -20.245,91.025 -21.969,98.802 -0.605,2.73 -1.43,7.14 -6.075,7.979 -14.523,2.623 -75.009,13.473 -80.675,14.438 -3.607,0.615 -5.591,0.262 -9.188,-2.156 -5.744,-3.86 -72.768,-48.8 -72.768,-48.8 z"
           id="path42"
           style="fill:url(#SVGID_1_)"
           inkscape:connector-curvature="0" /><path
           d="m 102.76,250.995 84.454,31.08 -19.084,87.162 c 0,0 -46.957,-33.424 -51.849,-36.894 -1.808,-1.282 -2.331,-2.817 -1.719,-6.563 0.762,-4.662 8.028,-45.121 8.646,-48.656 0.385,-2.203 -1.441,-3.32 -3.588,-2.213 -1.962,1.012 -39.145,20.285 -41.167,21.291 -2.214,1.102 -3.257,-0.175 -1.781,-2.906 1.25,-2.312 26.088,-42.301 26.088,-42.301 z"
           id="path44"
           inkscape:connector-curvature="0"
           style="fill:#e35b32" /><path
           d="m 416.53,208.019 c 1.303,-2.81 6.72,-4.56 11.345,-2.163 8.564,4.438 110.271,60.812 121.14,67.604 2.334,1.458 4.628,5.593 2.673,10.729 -4.791,12.583 -31.372,83.01 -31.372,83.01 L 367.127,437.46 346.247,334.273 Z"
           id="path46"
           inkscape:connector-curvature="0"
           style="fill:#db6a56" /><linearGradient
           id="SVGID_2_"
           gradientUnits="userSpaceOnUse"
           x1="229.67821"
           y1="612.66022"
           x2="193.1357"
           y2="381.93939"><stop
             offset="0"
             style="stop-color:#A03854"
             id="stop48" /><stop
             offset="0.2865"
             style="stop-color:#B34149"
             id="stop50" /><stop
             offset="0.5863"
             style="stop-color:#C5493C"
             id="stop52" /><stop
             offset="0.835"
             style="stop-color:#D14F33"
             id="stop54" /><stop
             offset="1"
             style="stop-color:#D5502F"
             id="stop56" /></linearGradient><path
           d="m 183.739,383.427 118.457,169.642 c 0,0 -42.228,45.432 -50.478,54.4 -1.569,1.706 -3.655,3.653 -7.677,0.949 -28.157,-18.931 -102.654,-68.956 -105.583,-70.875 -3.373,-2.209 -4.345,-5.118 -2.667,-10.125 6.542,-19.519 47.948,-143.991 47.948,-143.991 z"
           id="path59"
           style="fill:url(#SVGID_2_)"
           inkscape:connector-curvature="0" /><path
           d="m 153.925,210.929 52.321,-50.889 c 0,0 -53.337,-95.689 -55.027,-98.743 -1.693,-3.06 -4.57,-2.633 -5.766,-1.953 -14.703,8.359 -101.406,58.781 -116.596,67.994 -2.212,1.342 -1.728,4.555 -0.666,5.209 10.511,6.482 125.734,78.382 125.734,78.382 z"
           id="path61"
           inkscape:connector-curvature="0"
           style="fill:#e35c32" /><path
           d="m 251.677,664.563 c 0,0 -50.552,97.563 -51.677,99.938 -0.633,1.336 -1.031,2.25 -0.52,3.455 -0.23,-0.736 0.181,-1.281 1.208,-1.518 10.246,-2.36 164.111,-37.944 169.843,-39.364 3.657,-0.906 3.119,-4.022 1.237,-4.941 -8.049,-3.93 -120.091,-57.57 -120.091,-57.57 z"
           id="path63"
           inkscape:connector-curvature="0"
           style="fill:#651c55" /><polygon
           points="439.106,404.443 484.122,463.074 520.315,367.197 "
           id="polygon65"
           style="fill:#c84c45" /><path
           d="m 187.214,282.075 c 0,0 -51.089,233.3 -52.683,240.769 -0.897,4.205 -1.703,11.328 3.21,14.189 -3.132,-2.268 -3.247,-5.701 -2.054,-9.283 1.616,-4.852 75.186,-225.74 76.375,-229.563 0.875,-2.813 1.024,-6.375 -3.471,-8.156 -2.418,-0.958 -21.377,-7.956 -21.377,-7.956 z"
           id="path67"
           inkscape:connector-curvature="0"
           style="fill:#e66e51" /><path
           d="m 26.875,133.094 c 0.616,5.471 8.988,80.047 9.781,87.219 0.487,4.404 1.487,7.064 5.331,8.439 11.551,4.132 152.193,55.777 166.294,61.154 3.693,1.408 4.844,3.844 3.781,8.281 1.375,-3.656 0.797,-7.475 -0.375,-11.25 -2.281,-7.346 -11.024,-36.233 -13.156,-43.25 -1.365,-4.492 -2.923,-6.536 -6.35,-8.709 C 159.118,214.009 35.927,137.236 28.37,132.674 c -1.266,-0.764 -1.346,-2.908 -0.465,-4.455 -0.936,1.25 -1.311,2.375 -1.03,4.875 z"
           id="path69"
           inkscape:connector-curvature="0"
           style="fill:#d7522f" /><path
           d="m 145.804,59.174 c 2.758,-1.424 5.071,-1.611 8.071,-0.424 3,1.187 117.063,54.875 120.438,56.563 3.375,1.688 4.813,4.25 4.25,8.25 C 278,127.563 264.125,264 264.125,264 c 0,0 -111.594,-200.469 -112.906,-202.719 -1.312,-2.25 -3.344,-2.828 -5.415,-2.107 z"
           id="path71"
           inkscape:connector-curvature="0"
           style="fill:#d5502e" /><path
           d="m 323.875,227.097 c 17.292,-4.388 87.376,-21.097 92.751,-22.222 5.375,-1.125 7.749,-0.833 11.249,0.917 -3.791,-1.584 -9.249,-1.584 -11.457,2.417 -2.3,4.168 -122.001,219.208 -123.501,221.708 -1.5,2.5 -1.917,4.5 -0.167,7.25 -2.875,-3.583 -4.375,-5.917 -6.375,-13.542 C 284.375,416 263.875,338.25 263,334 c -0.875,-4.25 -0.875,-7.5 1.5,-11.625 2.375,-4.125 50.875,-86.625 52.625,-89.75 1.75,-3.125 3.186,-4.624 6.75,-5.528 z"
           id="path73"
           inkscape:connector-curvature="0"
           style="fill:#d04d30" /><linearGradient
           id="SVGID_3_"
           gradientUnits="userSpaceOnUse"
           x1="547.47852"
           y1="522.36432"
           x2="441.2959"
           y2="338.45059"><stop
             offset="0"
             style="stop-color:#99365A"
             id="stop75" /><stop
             offset="0.1343"
             style="stop-color:#A53C54"
             id="stop77" /><stop
             offset="0.3182"
             style="stop-color:#B2434E"
             id="stop79" /><stop
             offset="0.5145"
             style="stop-color:#BC4848"
             id="stop81" /><stop
             offset="0.7298"
             style="stop-color:#C24B44"
             id="stop83" /><stop
             offset="1"
             style="stop-color:#C44C42"
             id="stop85" /></linearGradient><path
           d="m 550.834,275.208 c 1.375,1.667 1.834,3.25 2.209,6.875 0.375,3.625 13.002,173.967 13.416,179.125 0.342,4.253 1.03,7.792 -3.23,11.551 -5.48,4.834 -125.395,112.908 -125.395,112.908 0,0 111.34,-294.847 114,-302.042 0.96,-2.596 0.625,-6.042 -1,-8.417 z"
           id="path88"
           style="fill:url(#SVGID_3_)"
           inkscape:connector-curvature="0" /><path
           d="m 76,295.667 c 0.208,1.125 1.064,1.264 2.958,0.292 19.645,-10.089 31.871,-16.511 40.542,-21 2.488,-1.288 4.07,0.156 3.708,2.167 -1.33,7.396 -2.787,15.518 -2.787,15.518 0,0 -31.903,4.651 -39.879,5.691 -1.917,0.248 -4.917,0.082 -4.542,-2.668 z"
           id="path90"
           inkscape:connector-curvature="0"
           style="fill:#e77551" /><linearGradient
           id="SVGID_4_"
           gradientUnits="userSpaceOnUse"
           x1="311.30371"
           y1="601.13867"
           x2="295.21851"
           y2="499.58041"><stop
             offset="0"
             style="stop-color:#B05772"
             id="stop92" /><stop
             offset="0.1035"
             style="stop-color:#B75A6E"
             id="stop94" /><stop
             offset="0.3032"
             style="stop-color:#C05D69"
             id="stop96" /><stop
             offset="0.5523"
             style="stop-color:#C55E66"
             id="stop98" /><stop
             offset="1"
             style="stop-color:#C65F65"
             id="stop100" /></linearGradient><path
           d="m 244.406,608.563 c 2,1.406 4.438,1.844 6.969,-0.813 2.654,-2.785 110.25,-118.688 110.25,-118.688 0,0 -21.688,97.688 -22.438,100.875 -0.75,3.187 -1.594,5.188 -5.75,5.938 -3.873,0.699 -75.232,13.58 -81.25,14.625 -3.422,0.595 -5.349,-0.31 -7.781,-1.937 z"
           id="path103"
           style="fill:url(#SVGID_4_)"
           inkscape:connector-curvature="0" /><path
           d="m 315.146,617.021 c 0,0 51.833,91.417 57.609,102.422 1.664,3.17 1.651,5.541 -0.729,7.01 1.567,-0.891 1.786,-3.349 -0.464,-4.432 -2.25,-1.083 -121.603,-58.295 -124.5,-59.666 -6.208,-2.938 -8.445,-6.391 -3.458,-8.917 5.627,-2.85 71.542,-36.417 71.542,-36.417 z"
           id="path105"
           inkscape:connector-curvature="0"
           style="fill:#a15277" /><path
           d="m 200.854,768.771 c -1.667,-0.083 -2.071,-1.891 -0.271,-2.313 3.705,-0.868 169.937,-39.376 169.937,-39.376 0,0 8.063,33.313 8.938,38.042 0.248,1.342 -0.021,2.479 -2.146,2.479 -2.125,0 -176.458,1.168 -176.458,1.168 z"
           id="path107"
           inkscape:connector-curvature="0"
           style="fill:#772a6c" /></g></g></g><i:pgf
     id="adobe_illustrator_pgf" /><rect
     style="fill:#ffffff;fill-opacity:1;stroke-width:0.88646245"
     id="rect72"
     width="196.39279"
     height="54"
     x="69.836418"
     y="379.49387"
     inkscape:export-xdpi="96"
     inkscape:export-ydpi="96" /></svg>