<?xml version="1.0" standalone="no"?>
<!DOCTYPE svg PUBLIC "-//W3C//DTD SVG 20010904//EN"
 "http://www.w3.org/TR/2001/REC-SVG-20010904/DTD/svg10.dtd">
<svg version="1.0" xmlns="http://www.w3.org/2000/svg"
 width="480.000000pt" height="92.000000pt" viewBox="0 0 480.000000 92.000000"
 preserveAspectRatio="xMidYMid meet">

<g transform="translate(0.000000,92.000000) scale(0.100000,-0.100000)"
fill="#000000" stroke="none">
<path d="M352 885 c-35 -39 -48 -100 -38 -173 7 -52 36 -118 51 -115 5 1 15
23 22 49 8 32 26 61 56 93 74 76 84 115 42 156 -38 39 -94 35 -133 -10z"/>
<path d="M800 635 l0 -245 30 0 30 0 0 131 0 131 29 29 c24 23 38 29 74 29 29
0 53 -7 68 -19 23 -18 24 -26 27 -160 l4 -141 29 0 29 0 0 108 c-1 178 -27
240 -114 263 -41 11 -105 0 -133 -23 -10 -8 -13 6 -13 66 l0 76 -30 0 -30 0 0
-245z"/>
<path d="M4180 784 c-36 -24 -50 -44 -61 -90 -21 -84 -173 -238 -228 -232 -25
3 -26 5 -29 86 -3 74 10 154 33 215 6 14 2 17 -26 17 -18 0 -40 -7 -49 -15
-15 -14 -21 -14 -53 0 -46 19 -114 19 -158 1 -42 -18 -95 -73 -141 -146 -97
-155 -296 -251 -357 -174 -12 15 -21 37 -21 50 0 21 5 24 34 24 71 0 185 60
212 111 40 79 -5 149 -97 149 -134 0 -239 -114 -239 -261 0 -77 24 -123 80
-152 72 -38 212 4 313 93 l45 40 7 -38 c9 -53 39 -100 70 -108 55 -14 150 55
221 160 l34 51 0 -56 c0 -42 6 -65 23 -90 43 -64 115 -49 216 46 37 36 81 83
96 105 l28 40 29 -49 c15 -28 28 -54 28 -58 0 -5 -17 -17 -37 -28 -53 -28
-113 -84 -113 -105 0 -29 32 -60 70 -69 48 -11 102 7 145 47 39 38 50 67 42
116 -4 28 -1 35 23 49 16 10 53 37 84 62 l55 45 14 -27 c20 -38 67 -189 67
-214 0 -27 -75 -106 -124 -131 -29 -15 -52 -19 -87 -16 -42 4 -48 2 -53 -16
-8 -32 19 -66 55 -66 104 0 287 190 414 432 60 114 71 169 36 188 -37 19 -46
12 -58 -47 -14 -73 -44 -153 -85 -223 l-31 -55 -37 112 c-49 145 -67 177 -105
181 -17 2 -39 -4 -50 -12 -19 -14 -19 -15 -1 -34 10 -12 15 -26 10 -33 -18
-29 -133 -119 -152 -119 -5 0 -24 27 -41 60 l-33 61 31 35 c37 42 38 54 8 82
-28 26 -26 26 -57 6z m-922 -56 c41 -41 -15 -125 -103 -153 -31 -9 -58 -15
-61 -13 -7 8 24 87 47 120 20 27 68 57 95 58 5 0 15 -5 22 -12z m473 -19 c58
-25 58 -23 -6 -118 -51 -78 -129 -161 -149 -161 -8 0 -22 8 -31 17 -43 42 9
233 73 267 37 21 55 20 113 -5z m489 -291 c0 -42 -25 -68 -67 -68 -48 0 -44
32 9 70 22 16 45 30 50 30 4 0 8 -14 8 -32z"/>
<path d="M1663 750 c-35 -16 -43 -16 -43 -5 0 10 -10 15 -30 15 l-30 0 0 -185
0 -185 30 0 30 0 0 131 0 131 29 29 c24 23 38 29 74 29 29 0 53 -7 68 -19 23
-18 24 -26 27 -160 l4 -141 29 0 29 0 0 125 c0 71 5 135 11 149 25 54 126 62
163 13 18 -25 21 -45 25 -158 3 -129 3 -129 27 -129 l24 0 0 123 c0 143 -10
187 -50 220 -53 45 -148 43 -199 -4 -21 -20 -23 -20 -41 -4 -21 19 -85 44
-115 44 -11 0 -39 -8 -62 -19z"/>
<path d="M2345 765 c-5 -2 -22 -6 -37 -9 -39 -9 -88 -54 -109 -101 -39 -84
-14 -186 57 -240 35 -27 46 -30 116 -30 65 0 80 3 100 23 30 27 38 28 38 2 0
-15 7 -20 25 -20 l25 0 0 185 0 185 -25 0 c-20 0 -25 -5 -25 -27 0 -25 -1 -25
-19 -9 -34 31 -112 52 -146 41z m110 -86 c96 -85 40 -249 -86 -249 -42 0 -98
34 -116 70 -17 34 -16 105 2 140 25 47 62 70 116 70 40 0 55 -5 84 -31z"/>
<path d="M2749 761 c-14 -5 -35 -14 -47 -20 -18 -10 -22 -9 -22 4 0 9 -9 15
-25 15 l-25 0 0 -185 0 -185 25 0 25 0 0 120 c0 165 19 200 110 200 30 0 47
-6 65 -25 24 -23 25 -29 25 -160 l0 -135 30 0 30 0 0 133 c0 148 -12 188 -65
218 -38 22 -92 30 -126 20z"/>
<path d="M1180 644 c0 -145 12 -195 57 -234 29 -26 42 -30 91 -30 38 0 66 6
82 17 17 12 25 13 28 5 2 -7 17 -12 33 -12 l29 0 0 185 0 185 -29 0 -29 0 -4
-140 c-3 -125 -5 -142 -24 -160 -44 -44 -140 -34 -163 16 -6 14 -11 80 -11
154 l0 130 -30 0 -30 0 0 -116z"/>
<path d="M588 726 c-68 -25 -185 -132 -165 -152 3 -4 28 0 56 7 43 11 60 10
124 -5 68 -16 77 -16 105 -2 32 17 42 34 42 72 0 38 -18 64 -55 80 -42 17 -59
17 -107 0z"/>
<path d="M38 487 c-50 -39 -38 -122 21 -147 73 -30 193 21 254 107 31 44 24
58 -22 42 -20 -7 -54 -9 -89 -5 -129 16 -147 16 -164 3z"/>
<path d="M371 423 c-9 -34 -27 -63 -61 -99 -74 -78 -80 -140 -16 -171 94 -44
173 63 147 202 -12 63 -30 107 -47 112 -6 2 -17 -17 -23 -44z"/>
<path d="M3435 250 c-11 -5 -14 -9 -7 -9 8 -1 12 -24 12 -80 0 -54 -4 -81 -12
-84 -7 -3 5 -6 27 -6 30 -1 36 2 27 11 -7 7 -12 44 -12 95 0 46 -3 83 -7 82
-5 0 -17 -4 -28 -9z"/>
<path d="M3610 235 c0 -8 9 -15 20 -15 11 0 20 7 20 15 0 8 -9 15 -20 15 -11
0 -20 -7 -20 -15z"/>
<path d="M3519 203 c-2 -16 -2 -50 1 -78 4 -38 9 -51 24 -53 10 -2 23 1 29 7
8 8 6 11 -6 11 -13 0 -17 9 -17 39 0 33 4 40 23 44 l22 4 -22 2 c-17 1 -23 7
-23 26 0 34 -27 32 -31 -2z"/>
<path d="M2735 170 c-20 -23 -23 -63 -5 -85 14 -17 80 -21 80 -5 0 6 -8 10
-18 10 -26 0 -42 20 -42 52 0 30 25 39 48 16 9 -9 12 -7 12 10 0 18 -6 22 -28
22 -16 0 -37 -9 -47 -20z"/>
<path d="M2852 178 c-16 -16 -16 -80 0 -96 18 -18 73 -14 91 6 20 22 22 73 5
90 -16 16 -80 16 -96 0z m68 -28 c8 -29 -4 -70 -20 -70 -17 0 -33 46 -26 75 8
33 37 30 46 -5z"/>
<path d="M2984 179 c-3 -5 0 -9 5 -9 15 0 14 -73 -1 -88 -9 -9 -3 -12 27 -11
22 0 34 3 28 6 -19 7 -17 82 3 90 22 8 35 -15 32 -59 -3 -36 -2 -38 27 -38 17
0 25 3 18 8 -6 4 -13 30 -15 57 l-3 50 -57 2 c-32 1 -60 -3 -64 -8z"/>
<path d="M3151 172 c-12 -23 2 -48 34 -56 29 -7 33 -24 9 -33 -10 -4 -22 1
-30 12 -15 21 -30 14 -21 -10 8 -18 67 -21 85 -3 23 23 13 48 -24 64 -28 12
-34 18 -25 27 9 9 16 9 31 -1 17 -10 20 -10 20 3 0 22 -66 20 -79 -3z"/>
<path d="M3268 143 c2 -27 9 -53 14 -60 5 -6 33 -12 61 -12 l52 0 -3 60 c-4
54 -6 59 -27 59 -13 0 -27 -4 -30 -10 -3 -5 -1 -10 5 -10 7 0 10 -15 8 -37 -2
-26 -8 -38 -18 -38 -11 0 -16 13 -18 48 -3 42 -6 47 -26 47 -22 0 -23 -3 -18
-47z"/>
<path d="M3605 181 c-3 -5 -1 -12 5 -16 13 -8 13 -51 0 -76 -10 -17 -7 -19 27
-18 21 0 32 3 26 6 -8 3 -13 25 -13 59 0 47 -3 54 -19 54 -11 0 -22 -4 -26 -9z"/>
<path d="M3689 179 c-10 -6 -11 -9 -1 -9 8 0 12 -16 12 -44 0 -26 -5 -46 -12
-49 -7 -3 5 -6 27 -6 30 -1 36 2 27 11 -26 26 -8 96 22 85 11 -5 16 -19 16
-52 0 -42 2 -45 26 -45 20 0 24 3 16 13 -6 7 -12 33 -14 57 l-3 45 -51 1 c-29
1 -58 -2 -65 -7z"/>
<path d="M3862 178 c-15 -15 -15 -41 0 -56 8 -8 8 -15 -1 -25 -9 -11 -8 -17 3
-27 9 -6 20 -9 25 -6 16 10 61 -5 61 -20 0 -19 -37 -36 -60 -29 -11 4 -20 15
-20 27 0 11 -5 18 -12 16 -34 -12 -4 -58 37 -58 38 0 75 21 81 46 9 33 -3 44
-46 44 -21 0 -42 5 -45 10 -3 6 5 10 19 10 27 0 56 23 56 46 0 8 6 14 13 15 6
0 3 4 -8 9 -30 13 -89 12 -103 -2z m58 -22 c0 -31 -14 -40 -30 -21 -15 18 -6
45 15 45 9 0 15 -9 15 -24z"/>
</g>
</svg>
