<?xml version="1.0" encoding="utf-8"?>
<!-- Generator: Adobe Illustrator 16.0.0, SVG Export Plug-In . SVG Version: 6.00 Build 0)  -->
<!DOCTYPE svg PUBLIC "-//W3C//DTD SVG 1.1//EN" "http://www.w3.org/Graphics/SVG/1.1/DTD/svg11.dtd">
<svg version="1.1" xmlns="http://www.w3.org/2000/svg" xmlns:xlink="http://www.w3.org/1999/xlink" x="0px" y="0px" width="570px"
	 height="300px" viewBox="0 0 570 300" enable-background="new 0 0 570 300" xml:space="preserve">
<g id="Layer_2">
</g>
<g id="Layer_1">
	<g>
		<path fill-rule="evenodd" clip-rule="evenodd" d="M317.345,150.676c-4.246,0-7.648,1.396-10.222,4.206
			c-2.559,2.808-4.066,6.86-4.496,12.144h27.235c0-5.132-1.107-9.129-3.32-12.02C324.33,152.114,321.259,150.676,317.345,150.676
			 M318.521,192.919c-6.405,0-11.397-1.979-14.98-5.921c-3.582-3.942-5.366-9.475-5.366-16.584c0-7.026,1.729-12.655,5.187-16.874
			c3.459-4.233,8.119-6.35,13.984-6.35c5.188,0,9.28,1.799,12.281,5.408c3.002,3.597,4.496,8.493,4.496,14.69v3.223h-31.744
			c0.057,6.085,1.467,10.732,4.247,13.941c2.766,3.209,6.735,4.813,11.896,4.813c2.518,0,4.716-0.18,6.625-0.525
			c1.909-0.347,4.316-1.106,7.233-2.269v3.652c-2.489,1.078-4.785,1.811-6.888,2.198
			C323.389,192.725,321.064,192.919,318.521,192.919z"/>
		<path fill-rule="evenodd" clip-rule="evenodd" d="M416.435,192.089v-28.563c0-4.425-0.941-7.648-2.808-9.668
			c-1.854-2.006-4.745-3.016-8.673-3.016c-5.271,0-9.129,1.328-11.563,3.998c-2.449,2.655-3.68,6.972-3.68,12.933v24.316H385.7
			v-63.073h4.012v20.07l-0.194,5.643h0.277c1.646-2.656,3.734-4.563,6.251-5.753c2.504-1.189,5.63-1.785,9.364-1.785
			c9.986,0,14.994,5.367,14.994,16.087v28.812H416.435z"/>
		<path fill-rule="evenodd" clip-rule="evenodd" d="M363.847,192.919c-6.293,0-11.217-1.992-14.787-5.962
			c-3.567-3.97-5.338-9.517-5.338-16.611c0-7.304,1.839-12.988,5.546-17.056c3.694-4.066,8.77-6.1,15.188-6.1
			c3.816,0,7.454,0.664,10.939,1.992l-1.093,3.57c-3.804-1.273-7.122-1.91-9.932-1.91c-5.393,0-9.487,1.674-12.268,5.008
			s-4.178,8.133-4.178,14.412c0,5.935,1.397,10.596,4.178,13.957c2.78,3.36,6.666,5.048,11.673,5.048
			c3.998,0,7.705-0.72,11.136-2.144v3.721C372.104,192.227,368.411,192.919,363.847,192.919"/>
		<path fill-rule="evenodd" clip-rule="evenodd" d="M284.55,189.433c2.545,0,4.758-0.222,6.652-0.649v3.181
			c-1.949,0.636-4.19,0.955-6.735,0.955c-3.887,0-6.75-1.038-8.604-3.126c-1.854-2.076-2.78-5.354-2.78-9.808v-28.479h-6.529v-2.351
			l6.529-1.826l2.019-9.931h2.075v10.623h12.933v3.485h-12.933v27.968c0,3.389,0.595,5.893,1.785,7.524
			C280.151,188.617,282.019,189.433,284.55,189.433"/>
		<polygon fill-rule="evenodd" clip-rule="evenodd" points="252.958,147.273 263.733,147.273 231.63,192.089 220.841,192.089 		"/>
		<path fill-rule="evenodd" clip-rule="evenodd" d="M205.585,192.089l-1.342-5.866h-0.484c-1.328,2.09-3.208,3.723-5.658,4.911
			c-2.448,1.189-5.242,1.785-8.368,1.785c-5.436,0-9.489-1.356-12.171-4.053c-2.67-2.698-4.012-6.792-4.012-12.283v-29.31h9.6
			v27.637c0,3.43,0.705,6.002,2.116,7.718c1.397,1.714,3.61,2.572,6.611,2.572c3.997,0,6.944-1.19,8.811-3.583
			c1.881-2.393,2.822-6.403,2.822-12.019v-22.325h9.571v44.815H205.585z"/>
		<path fill-rule="evenodd" clip-rule="evenodd" d="M160.716,192.089h-9.558v-27.554c0-3.457-0.706-6.03-2.089-7.73
			c-1.397-1.702-3.61-2.559-6.639-2.559c-4.025,0-6.971,1.188-8.838,3.567c-1.868,2.38-2.794,6.362-2.794,11.951v22.324h-9.53
			v-44.815h7.455l1.342,5.865h0.484c1.356-2.144,3.278-3.79,5.754-4.952c2.49-1.162,5.256-1.742,8.271-1.742
			c10.761,0,16.142,5.478,16.142,16.418V192.089z"/>
		<path fill-rule="evenodd" clip-rule="evenodd" d="M97.574,135.406c0-1.701,0.457-3.016,1.396-3.929
			c0.927-0.926,2.255-1.383,3.984-1.383c1.673,0,2.988,0.457,3.915,1.383c0.927,0.913,1.397,2.228,1.397,3.929
			c0,1.618-0.471,2.891-1.397,3.832c-0.926,0.927-2.241,1.397-3.915,1.397c-1.729,0-3.057-0.47-3.984-1.397
			C98.03,138.297,97.574,137.024,97.574,135.406"/>
		<rect x="98.141" y="147.273" fill-rule="evenodd" clip-rule="evenodd" width="9.517" height="44.815"/>
		<rect x="75" y="129.016" fill-rule="evenodd" clip-rule="evenodd" width="9.516" height="63.073"/>
		<polygon fill-rule="evenodd" clip-rule="evenodd" points="209.425,129.016 220.283,129.016 278.069,212.006 267.281,212.006 		"/>
		<path fill-rule="evenodd" clip-rule="evenodd" fill="#E33B23" d="M426.847,96.067c5.09-8.771,13.901-15.112,24.274-16.867
			c-1.054,0.687-1.973,1.617-2.938,2.623c-2.004,2.089-4.48,7.393-8.018,10.004C437.167,94.042,430.265,94.205,426.847,96.067"/>
		<path fill-rule="evenodd" clip-rule="evenodd" fill="#076B40" d="M423.933,124.492c-1.146-3.452-1.77-7.143-1.77-10.98
			c0-4.346,0.801-8.506,2.256-12.342c0.088,2.786,1.035,6.49,1.01,11.75c0,3.496-0.59,6.147-0.982,8.276
			C424.192,122.438,423.979,123.509,423.933,124.492"/>
		<path fill-rule="evenodd" clip-rule="evenodd" fill="#076B40" d="M473.859,143.945c-5.004,2.783-10.762,4.37-16.894,4.37
			c-13.501,0-25.205-7.688-30.977-18.925c2.398,2.153,7.334,3.31,22.313,6.511c9.864,2.089,19.178,7.513,25.427,8.035
			L473.859,143.945z"/>
		<path fill-rule="evenodd" clip-rule="evenodd" fill="#E33B23" d="M457.168,78.711c19.127,0.11,34.6,15.648,34.6,34.801
			c0,4.255-0.764,8.331-2.162,12.099c-1.257-5.177-5.338-7.935-9.863-15.262c-5.383-8.718-6.248-10.325-9.825-16.111
			C466.864,89.366,461.262,81.101,457.168,78.711"/>
		<path fill-rule="evenodd" clip-rule="evenodd" fill="#FFBB1F" d="M443.93,96.128c-2.744,2.026-9.698,1.84-11.466,4.209
			c-1.738,2.369,0.061,5.798,0.031,12.158c0,2.712-0.459,4.77-0.764,6.421c-0.428,2.089-0.701,3.555,0.152,5.051
			c1.557,2.65,4.057,3.304,18.359,6.36c7.653,1.621,14.882,5.83,19.73,6.235c4.85,0.374,5.886-1.278,8.845-3.959
			c2.928-2.681,3.872-1.839,3.781-7.732c-0.091-5.86-3.781-7.606-7.959-14.371c-4.179-6.765-4.85-8.012-7.625-12.501
			c-2.774-4.427-8.264-12.47-11.405-12.563c-2.501-0.063-3.903,1.309-5.459,2.93C448.597,89.986,446.675,94.102,443.93,96.128z"/>
	</g>
</g>
</svg>
