<?xml version="1.0" encoding="utf-8"?>
<!-- Generator: Adobe Illustrator 23.0.1, SVG Export Plug-In . SVG Version: 6.00 Build 0)  -->
<svg version="1.1" id="Layer_1" xmlns="http://www.w3.org/2000/svg" xmlns:xlink="http://www.w3.org/1999/xlink" x="0px" y="0px"
	 viewBox="0 0 1024 768" style="enable-background:new 0 0 1024 768;" xml:space="preserve">
<polygon points="566.67,434.9 576.07,444.3 613.07,407 603.67,397.7 "/>
<polygon points="137.47,407.3 150.57,407.3 150.57,372.1 196.97,372.1 196.97,360.3 150.57,360.3 150.57,339.9 217.37,339.9 
	217.37,328.1 137.47,328.1 "/>
<rect x="230.07" y="328.1" width="13.1" height="79.2"/>
<polygon points="337.57,393.1 277.07,328.1 260.77,328.1 260.77,407.3 273.87,407.3 273.87,342.4 334.37,407.3 350.67,407.3 
	350.67,328.1 337.57,328.1 "/>
<path d="M451.17,339.1c-8.1-7.3-19-11-32.8-11h-50.1v79.2h52.6c11.7,0,21.6-3.5,29.5-10.5c8.5-7.5,12.8-16.9,12.8-28.2
	C463.27,356.3,459.27,346.5,451.17,339.1z M441.47,387.9c-5.1,5.1-11.5,7.6-19.4,7.6h-40.6v-55.6h38c8.8,0,16,2.6,21.4,7.8
	c5.4,5.2,8.1,12,8.1,20.5C449.07,376.3,446.47,382.8,441.47,387.9z"/>
<polygon points="571.67,342.6 571.67,407.3 584.87,407.3 584.87,328.1 568.47,328.1 530.37,376 492.37,328.1 475.97,328.1 
	475.97,407.3 489.07,407.3 489.07,342.6 489.37,342.6 530.27,394.2 571.37,342.6 "/>
<path d="M785.87,369.3c3.9-4.1,5.8-9.5,5.8-16.2c0-7.7-2.4-13.7-7.1-18.2c-4.8-4.5-11.3-6.8-19.6-6.8h-62.5v79.2h13.1v-30.2h40
	l21.4,30.2h15.3l-21.2-30.9C777.37,375.5,782.27,373.1,785.87,369.3z M715.57,365.3v-25.4h46.2c10.9,0,16.4,4.4,16.4,13.1
	c0,8.2-5.1,12.3-15.2,12.3H715.57z"/>
<polygon points="817.67,395.5 817.67,372.1 864.07,372.1 864.07,360.3 817.67,360.3 817.67,339.9 884.37,339.9 884.37,328.1 
	804.57,328.1 804.57,407.3 887.47,407.3 887.47,395.5 "/>
<path d="M643.67,321.1c-25.5,0-46.2,20.7-46.2,46.1c0,25.4,20.7,46.1,46.1,46.1c25.4,0,46.1-20.7,46.1-46.1
	C689.77,341.8,669.07,321.1,643.67,321.1z M643.67,400c-18.1,0-32.8-14.7-32.8-32.8c0-18.1,14.7-32.8,32.8-32.8s32.8,14.7,32.8,32.8
	C676.47,385.3,661.77,400,643.67,400z"/>
<polygon points="647.17,350.9 640.07,350.9 640.07,363.7 627.37,363.7 627.37,370.8 640.07,370.8 640.07,383.5 647.17,383.5 
	647.17,370.8 659.97,370.8 659.97,363.7 647.17,363.7 "/>
<g>
	<path d="M633.47,429.4c1.9-1.6,4.2-2.5,7.2-2.5c3.9,0,6.9,1.3,9,3.8l3.2-1.3c-2.8-4-6.9-6-12.2-6c-3.7,0-6.8,1-9.3,3.1
		c-2.9,2.4-4.3,5.4-4.3,9.2c0,3.8,1.4,6.9,4.3,9.2c2.5,2.1,5.6,3.1,9.4,3.1c2.7,0,5-0.4,6.9-1.3c1.9-0.9,3.7-2.3,5.2-4.2l-3-1.8
		c-2.2,2.6-5.1,3.8-8.9,3.8c-3.1,0-5.6-0.8-7.4-2.4c-1.8-1.6-2.7-3.7-2.7-6.4C630.67,433.2,631.57,431.1,633.47,429.4z"/>
	<path d="M679.17,426.6c-2.5-2.1-5.6-3.1-9.3-3.1s-6.8,1.1-9.3,3.1c-2.9,2.4-4.4,5.5-4.4,9.2c0,3.8,1.4,6.9,4.3,9.2
		c2.5,2.1,5.6,3.1,9.4,3.1c3.7,0,6.8-1,9.3-3.1c2.9-2.4,4.3-5.4,4.3-9.2S681.97,429,679.17,426.6z M677.07,442.1
		c-1.8,1.6-4.2,2.4-7.2,2.4s-5.5-0.8-7.3-2.4c-1.8-1.6-2.7-3.7-2.7-6.4c0-2.6,0.9-4.7,2.8-6.3c1.9-1.7,4.3-2.5,7.2-2.5
		c2.7,0,5,0.7,6.8,2.2c2.1,1.7,3.2,3.9,3.2,6.6C679.77,438.4,678.87,440.5,677.07,442.1z"/>
	<polygon points="708.87,443.2 692.57,424.2 688.27,424.2 688.27,447.4 691.77,447.4 691.77,428.3 707.97,447.4 712.37,447.4 
		712.37,424.2 708.87,424.2 	"/>
	<path d="M733.77,433.6c-0.9-0.1-2.9-0.3-5.8-0.5c-2-0.1-3.4-0.4-4.3-0.7c-1.2-0.5-1.9-1.2-1.9-2.2s0.6-1.8,1.7-2.3
		c1.2-0.6,2.8-0.8,5-0.8c3.3,0,6.5,0.9,9.6,2.6l2.1-2.6c-3.1-2.3-6.9-3.4-11.5-3.4c-3.4,0-6,0.6-7.9,1.9c-1.9,1.3-2.8,3-2.8,5.2
		c0,2.1,0.8,3.6,2.5,4.5c1.4,0.8,3.9,1.3,7.4,1.5c4,0.3,6.4,0.5,7.3,0.8c1.7,0.5,2.6,1.5,2.6,3c0,1.3-0.7,2.3-2,3
		c-1.4,0.7-3.3,1.1-5.8,1.1c-3.8,0-7.4-1.1-10.7-3.3l-1.9,2.8c3,2.6,7.2,3.9,12.7,3.9c3.7,0,6.6-0.7,8.6-2c2-1.3,3-3.2,3-5.7
		c0-1.9-0.6-3.4-1.9-4.5C738.37,434.7,736.47,434,733.77,433.6z"/>
	<path d="M766.87,439c0,1.8-0.7,3.2-2.2,4.2c-1.4,1-3.6,1.4-6.3,1.4c-2.8,0-4.9-0.5-6.4-1.4c-1.5-1-2.2-2.4-2.2-4.2v-14.8h-3.5v15.7
		c0,2.4,1.1,4.4,3.2,5.9c2.2,1.6,5.2,2.3,8.8,2.3c3.7,0,6.6-0.8,8.8-2.3s3.2-3.5,3.2-5.9v-15.7h-3.5V439H766.87z"/>
	<polygon points="779.97,424.2 776.47,424.2 776.47,447.4 796.47,447.4 796.47,443.9 779.97,443.9 	"/>
	<polygon points="792.77,427.6 802.97,427.6 802.97,447.4 806.47,447.4 806.47,427.6 816.67,427.6 816.67,424.2 792.77,424.2 	"/>
	<rect x="821.47" y="424.2" width="3.5" height="23.2"/>
	<polygon points="851.67,443.2 835.37,424.2 830.97,424.2 830.97,447.4 834.57,447.4 834.57,428.3 850.77,447.4 855.17,447.4 
		855.17,424.2 851.67,424.2 	"/>
	<path d="M872.87,435.1v3.5h9.9c-1.4,4-4.5,6-9.2,6c-3,0-5.4-0.8-7.2-2.4c-1.8-1.6-2.7-3.7-2.7-6.4c0-2.7,1.1-4.9,3.2-6.6
		c1.8-1.5,4.1-2.2,6.8-2.2c3.5,0,6.3,1.3,8.5,3.9l3.3-1.8c-3-3.7-6.8-5.6-11.5-5.6c-3.9,0-7.1,1.1-9.6,3.1c-2.9,2.4-4.3,5.5-4.3,9.2
		c0,3.8,1.4,6.9,4.3,9.2c2.5,2.1,5.6,3.1,9.4,3.1c4.1,0,7.4-1.2,9.9-3.5c2.5-2.3,3.7-5.4,3.7-9.2v-0.3H872.87z"/>
</g>
</svg>
