<?xml version="1.0" encoding="UTF-8" standalone="no"?>
<svg
   xmlns:dc="http://purl.org/dc/elements/1.1/"
   xmlns:cc="http://creativecommons.org/ns#"
   xmlns:rdf="http://www.w3.org/1999/02/22-rdf-syntax-ns#"
   xmlns:svg="http://www.w3.org/2000/svg"
   xmlns="http://www.w3.org/2000/svg"
   xmlns:sodipodi="http://sodipodi.sourceforge.net/DTD/sodipodi-0.dtd"
   xmlns:inkscape="http://www.inkscape.org/namespaces/inkscape"
   id="svg948"
   version="1.1"
   viewBox="0 0 223.01471 37.796074"
   height="37.796074mm"
   width="223.01471mm"
   sodipodi:docname="lt_black_horizontal.svg"
   inkscape:version="0.92.3 (2405546, 2018-03-11)">
  <sodipodi:namedview
     pagecolor="#ffffff"
     bordercolor="#666666"
     borderopacity="1"
     objecttolerance="10"
     gridtolerance="10"
     guidetolerance="10"
     inkscape:pageopacity="0"
     inkscape:pageshadow="2"
     inkscape:window-width="1853"
     inkscape:window-height="1016"
     id="namedview33"
     showgrid="false"
     fit-margin-top="10"
     fit-margin-left="10"
     fit-margin-right="10"
     fit-margin-bottom="10"
     inkscape:zoom="0.46862567"
     inkscape:cx="634.29891"
     inkscape:cy="183.60107"
     inkscape:window-x="1136"
     inkscape:window-y="27"
     inkscape:window-maximized="1"
     inkscape:current-layer="svg948" />
  <defs
     id="defs942">
    <clipPath
       id="clipPath32"
       clipPathUnits="userSpaceOnUse">
      <path
         id="path30"
         d="M 0,599.28 H 845.89 V 0 H 0 Z" />
    </clipPath>
  </defs>
  <metadata
     id="metadata945">
    <rdf:RDF>
      <cc:Work
         rdf:about="">
        <dc:format>image/svg+xml</dc:format>
        <dc:type
           rdf:resource="http://purl.org/dc/dcmitype/StillImage" />
        <dc:title></dc:title>
      </cc:Work>
    </rdf:RDF>
  </metadata>
  <g
     transform="translate(96.388305,-52.828153)"
     id="layer1">
    <g
       transform="matrix(0.35277777,0,0,-0.35277777,-76.936036,80.81902)"
       id="g12">
      <path
         id="path14"
         style="fill:#100f0d;fill-opacity:1;fill-rule:nonzero;stroke:none"
         d="M 0,0 H -15.801 L 0.28,41.739 H -24.596 L -49.471,-22.125 H -8.77 Z" />
    </g>
    <g
       transform="matrix(0.35277777,0,0,-0.35277777,-76.998409,62.634419)"
       id="g16">
      <path
         id="path18"
         style="fill:#100f0d;fill-opacity:1;fill-rule:nonzero;stroke:none"
         d="M 0,0 H 15.798 L -0.283,-41.739 H 24.596 L 49.468,22.128 H 8.767 Z" />
    </g>
    <g
       transform="matrix(0.35277777,0,0,-0.35277777,-42.603245,63.120864)"
       id="g20">
      <path
         id="path22"
         style="fill:#100f0d;fill-opacity:1;fill-rule:nonzero;stroke:none"
         d="m 0,0 h 7.686 v -41.869 h 12.619 v -6.975 H 0 Z" />
    </g>
    <path
       id="path24"
       style="fill:#100f0d;fill-opacity:1;fill-rule:nonzero;stroke:none;stroke-width:0.35277775"
       d="m -25.511974,63.120935 h 2.704748 v 17.231078 h -2.704748 z" />
    <g
       id="g26"
       transform="matrix(0.35277777,0,0,-0.35277777,-134.08639,177.43257)">
      <g
         clip-path="url(#clipPath32)"
         id="g28">
        <g
           transform="translate(353.4912,297.168)"
           id="g34">
          <path
             id="path36"
             style="fill:#100f0d;fill-opacity:1;fill-rule:nonzero;stroke:none"
             d="m 0,0 v -15.004 h 4.399 c 2.572,0 3.979,1.19 3.979,4.823 v 4.244 C 8.378,-1.394 6.913,0 3.419,0 Z M 0,19.884 V 6.974 h 2.995 c 2.862,0 4.611,1.267 4.611,5.168 v 2.718 c 0,3.483 -1.192,5.024 -3.9,5.024 z m 15.272,-4.248 v -1.728 c 0,-5.052 -1.529,-8.241 -4.947,-9.853 4.122,-1.617 5.717,-5.304 5.717,-10.472 v -3.969 c 0,-7.538 -3.979,-11.593 -11.643,-11.593 H -7.681 V 26.865 H 3.907 c 7.954,0 11.365,-3.71 11.365,-11.229" />
        </g>
        <g
           transform="translate(406.625,317.0518)"
           id="g38">
          <path
             id="path40"
             style="fill:#100f0d;fill-opacity:1;fill-rule:nonzero;stroke:none"
             d="m 0,0 v -14.985 h 2.995 c 2.862,0 4.593,1.249 4.593,5.157 v 4.805 C 7.588,-1.541 6.396,0 3.688,0 Z m 8.356,-41.862 c -0.423,1.261 -0.689,2.019 -0.689,6.011 v 7.668 c 0,4.533 -1.537,6.206 -5.027,6.206 H 0 V -41.862 H -7.682 V 6.981 H 3.903 c 7.951,0 11.37,-3.71 11.37,-11.229 V -8.09 c 0,-5.014 -1.613,-8.296 -5.028,-9.912 3.835,-1.594 5.085,-5.301 5.085,-10.393 v -7.53 c 0,-2.381 0.076,-4.131 0.844,-5.937 z" />
        </g>
        <g
           transform="translate(459.4531,303.4492)"
           id="g42">
          <path
             id="path44"
             style="fill:#100f0d;fill-opacity:1;fill-rule:nonzero;stroke:none"
             d="M 0,0 H 10.547 V -6.985 H 0 v -14.3 H 13.255 V -28.26 H -7.663 V 20.584 H 13.255 V 13.603 H 0 Z" />
        </g>
        <g
           transform="translate(500.0146,324.0332)"
           id="g46">
          <path
             id="path48"
             style="fill:#100f0d;fill-opacity:1;fill-rule:nonzero;stroke:none"
             d="M 0,0 H 23.733 V -6.981 H 15.704 V -48.844 H 8.04 V -6.981 H 0 Z" />
        </g>
        <g
           transform="translate(559.5586,317.0518)"
           id="g50">
          <path
             id="path52"
             style="fill:#100f0d;fill-opacity:1;fill-rule:nonzero;stroke:none"
             d="m 0,0 v -14.985 h 2.994 c 2.862,0 4.611,1.249 4.611,5.157 v 4.805 C 7.605,-1.541 6.413,0 3.684,0 Z m 8.374,-41.862 c -0.424,1.261 -0.711,2.019 -0.711,6.011 v 7.668 c 0,4.533 -1.516,6.206 -5.013,6.206 H 0 V -41.862 H -7.678 V 6.981 H 3.906 c 7.955,0 11.364,-3.71 11.364,-11.229 V -8.09 c 0,-5.014 -1.602,-8.296 -5.014,-9.912 3.82,-1.594 5.092,-5.301 5.092,-10.393 v -7.53 c 0,-2.381 0.064,-4.131 0.834,-5.937 z" />
        </g>
        <g
           transform="translate(612.4043,303.4492)"
           id="g54">
          <path
             id="path56"
             style="fill:#100f0d;fill-opacity:1;fill-rule:nonzero;stroke:none"
             d="M 0,0 H 10.543 V -6.985 H 0 v -14.3 H 13.255 V -28.26 H -7.678 V 20.584 H 13.255 V 13.603 H 0 Z" />
        </g>
        <g
           transform="translate(662.0332,310.5664)"
           id="g58">
          <path
             id="path60"
             style="fill:#100f0d;fill-opacity:1;fill-rule:nonzero;stroke:none"
             d="m 0,0 v -35.377 h -6.909 v 48.844 h 9.638 l 7.873,-29.239 v 29.239 h 6.851 V -35.377 H 9.556 Z" />
        </g>
        <g
           transform="translate(717.4541,317.0518)"
           id="g62">
          <path
             id="path64"
             style="fill:#100f0d;fill-opacity:1;fill-rule:nonzero;stroke:none"
             d="m 0,0 v -34.888 h 4.331 c 2.441,0 3.91,1.268 3.91,4.744 V -4.736 C 8.241,-1.25 6.772,0 4.331,0 Z M -7.685,6.981 H 4.464 c 7.667,0 11.441,-4.255 11.441,-12.073 v -24.695 c 0,-7.819 -3.774,-12.075 -11.441,-12.075 H -7.685 Z" />
        </g>
      </g>
    </g>
  </g>
</svg>
