<?xml version="1.0" encoding="UTF-8" standalone="no"?>
<!--part of the category icon pack by sixsixfive released under CC0 (https://creativecommons.org/publicdomain/zero/1.0/) on openclipart-->
<svg xmlns="http://www.w3.org/2000/svg" xmlns:xlink="http://www.w3.org/1999/xlink" viewBox="0 0 32 32">
 <defs id="0">
  <linearGradient id="C">
   <stop id="R" stop-color="#f7f7f6"/>
   <stop id="S" offset="1" stop-color="#262b2d"/>
  </linearGradient>
  <linearGradient id="D">
   <stop id="T" stop-color="#555753"/>
   <stop id="U" offset="1" stop-color="#2e3436"/>
  </linearGradient>
  <linearGradient id="E">
   <stop id="V" stop-color="#fff"/>
   <stop id="W" offset="1" stop-color="#fff" stop-opacity="0"/>
  </linearGradient>
  <linearGradient id="F">
   <stop id="X" stop-color="#9d660f"/>
   <stop id="Y" offset="1" stop-color="#e6b15e"/>
  </linearGradient>
  <linearGradient x1="31.02" y1="1051.78" x2="31.11" y2="1028.17" id="G" xlink:href="#E" gradientUnits="userSpaceOnUse" gradientTransform="translate(0,-1020.375)"/>
  <linearGradient x1="31.02" y1="1021.04" x2="31.18" y2="1025.18" id="H" xlink:href="#E" gradientUnits="userSpaceOnUse" gradientTransform="translate(0,-1020.375)"/>
  <radialGradient cx="12.05" cy="1051.77" r="16" id="I" xlink:href="#F" gradientUnits="userSpaceOnUse" gradientTransform="matrix(1.4329786,-1.4036705,1.3587115,1.387081,-1430.5122,-1405.3612)"/>
  <linearGradient id="J">
   <stop id="Z" stop-color="#888a85"/>
   <stop id="a" offset="1" stop-color="#555753"/>
  </linearGradient>
  <linearGradient id="K">
   <stop id="b" stop-color="#fff" stop-opacity="0.8"/>
   <stop id="c" offset="1" stop-color="#fff" stop-opacity="0"/>
  </linearGradient>
  <linearGradient y1="10.59" x2="0" y2="40.35" id="L" xlink:href="#K" gradientUnits="userSpaceOnUse" gradientTransform="matrix(0.22310074,0,0,0.23521232,10.11548,10.08687)"/>
  <radialGradient cx="24.326" cy="14" r="17.653" id="M" xlink:href="#D" gradientUnits="userSpaceOnUse" gradientTransform="matrix(0.11336228,-0.16266995,0.16727465,0.11657125,9.8506348,16.540399)"/>
  <radialGradient cx="28.952" cy="35.11" r="16.776" id="N" xlink:href="#J" gradientUnits="userSpaceOnUse" gradientTransform="matrix(0.61884666,0,0,0.6196057,0.1909148,-0.00831757)"/>
  <linearGradient y1="11.314" x2="0" y2="41.22" id="O" xlink:href="#K" gradientUnits="userSpaceOnUse" gradientTransform="matrix(0.61884666,0,0,0.6522978,0.1909148,-0.86689857)"/>
  <radialGradient cx="15.71" cy="16.264" r="11.782" id="P" xlink:href="#C" gradientUnits="userSpaceOnUse" gradientTransform="matrix(1,0,0,0.99977855,0,0.00360169)"/>
 </defs>
 <rect width="32" height="32" rx="5" y="-0.013" id="1" fill="url(#I)"/>
 <path d="M 15.112857,5.4891375 C 8.8861578,5.8053935 3.9281208,10.975772 3.9281208,17.278454 c 0,6.505993 5.285852,11.765544 11.7935822,11.765546 6.507729,0 11.771033,-5.259504 11.771032,-11.765546 0,-6.506044 -5.263347,-11.7893165 -11.771032,-11.7893165 -0.203366,0 -0.407985,-0.0102 -0.608846,0 z" id="2" opacity="0.2"/>
 <text x="-1321.9" y="-3602.63" id="3" font-family="Sans" word-spacing="0" line-height="125%" letter-spacing="0" font-size="12"><tspan x="-1321.9" y="-3602.63" id="Q"/>
 </text>
 <path d="M 5,0.4688 C 2.486562,0.4688 0.46875,2.4866 0.46875,5 l 0,22 c 0,2.5134 2.017812,4.5312 4.53125,4.5312 l 22,0 c 2.513438,0 4.53125,-2.0178 4.53125,-4.5312 l 0,-22 C 31.53125,2.4866 29.513438,0.4688 27,0.4688 l -22,0 z" id="4" opacity="0.4" fill="none" stroke="#000"/>
 <path d="M 5,1.4688 C 3.016507,1.4688 1.46875,3.0165 1.46875,5 l 0,22 c 0,1.9835 1.547757,3.5312 3.53125,3.5312 l 22,0 c 1.983493,0 3.53125,-1.5477 3.53125,-3.5312 l 0,-22 C 30.53125,3.0165 28.983493,1.4687 27,1.4688 l -22,0 z" id="5" opacity="0.2" fill="none" stroke="url(#G)"/>
 <path d="M 5,1.4688 C 3.016507,1.4688 1.46875,3.0165 1.46875,5 l 0,22 c 0,1.9835 1.547757,3.5312 3.53125,3.5312 l 22,0 c 1.983493,0 3.53125,-1.5477 3.53125,-3.5312 l 0,-22 C 30.53125,3.0165 28.983493,1.4687 27,1.4688 l -22,0 z" id="6" opacity="0.4" fill="none" stroke="url(#H)"/>
 <path d="M 15.112857,4.4890025 C 8.8861578,4.8052585 3.9281208,9.9756365 3.9281208,16.278319 c 0,6.505993 5.285852,11.765544 11.7935822,11.765546 6.507729,0 11.771033,-5.259504 11.771032,-11.765546 0,-6.5060435 -5.263347,-11.7893165 -11.771032,-11.7893165 -0.203366,0 -0.407985,-0.0102 -0.608846,0 z" id="7" fill="url(#P)"/>
 <path d="M 15.197946,6.1656865 C 9.8578768,6.4369105 5.6058228,10.87107 5.6058228,16.276303 c 0,5.579595 4.5331922,10.09023 10.1142752,10.090231 5.581083,0 10.094937,-4.510594 10.094936,-10.090231 0,-5.579637 -4.51389,-10.1106165 -10.094936,-10.1106165 -0.174408,0 -0.349892,-0.0087 -0.522152,0 z" id="8" fill="url(#N)"/>
 <path d="m 15.525672,12.622752 c -1.925151,0.0978 -3.458061,1.696716 -3.458061,3.645791 0,2.011948 1.634263,3.63844 3.646303,3.63844 2.012039,0 3.639331,-1.626477 3.63933,-3.63844 0,-2.011963 -1.627304,-3.645791 -3.63933,-3.645791 -0.06288,0 -0.12614,-0.0032 -0.188242,0 z" id="9" fill="url(#M)" stroke="#2e3436" stroke-width="1.107"/>
 <path d="m 15.55356,13.247535 c -1.628313,0.08272 -2.886366,1.419405 -2.886366,3.021008 0,1.653079 1.339448,3.006307 3.04672,3.006307 1.707274,0 3.039748,-1.351679 3.039748,-3.006307 0,-1.654625 -1.333867,-3.013658 -3.039748,-3.013658 -0.08179,0 -0.136783,-0.0085 -0.160354,-0.0073 z" id="A" opacity="0.4" fill="none" stroke="url(#L)" stroke-width="1.01"/>
 <path d="m 15.71875,6.75 c -5.301514,0 -9.5625,4.283739 -9.5625,9.53125 0,5.247502 4.259577,9.531249 9.5625,9.53125 5.302911,0 9.562501,-4.282184 9.5625,-9.53125 0,-5.249075 -4.260996,-9.53125 -9.5625,-9.53125 z" id="B" opacity="0.4" fill="none" stroke="url(#O)" stroke-width="1.069"/>
</svg>