<?xml version="1.0" encoding="UTF-8" standalone="no"?>
<!-- Created with Inkscape (http://www.inkscape.org/) -->
<svg xmlns:inkscape="http://www.inkscape.org/namespaces/inkscape" xmlns:rdf="http://www.w3.org/1999/02/22-rdf-syntax-ns#" xmlns="http://www.w3.org/2000/svg" xmlns:cc="http://creativecommons.org/ns#" xmlns:dc="http://purl.org/dc/elements/1.1/" xmlns:sodipodi="http://sodipodi.sourceforge.net/DTD/sodipodi-0.dtd" xmlns:svg="http://www.w3.org/2000/svg" xmlns:ns1="http://sozi.baierouge.fr" xmlns:xlink="http://www.w3.org/1999/xlink" id="svg2" sodipodi:docname="coffee.svg" viewBox="0 0 703.07 642.46" version="1.1" inkscape:version="0.47pre4 r22446">
  <sodipodi:namedview id="base" bordercolor="#666666" inkscape:pageshadow="2" inkscape:window-y="32" pagecolor="#ffffff" inkscape:window-height="746" inkscape:window-maximized="1" inkscape:zoom="0.49497475" inkscape:window-x="0" showgrid="false" borderopacity="1.0" inkscape:current-layer="layer1" inkscape:cx="169.79612" inkscape:cy="407.48761" inkscape:window-width="1280" inkscape:pageopacity="0.0" inkscape:document-units="px"/>
  <g id="layer1" inkscape:label="Layer 1" inkscape:groupmode="layer" transform="translate(-25.953 -228.97)">
    <rect id="rect3728" style="fill:#ffffff" transform="translate(25.953 233.78)" height="642.46" width="703.07" y="-4.8143" x="0"/>
    <path id="path2887" style="fill:#ffffff" d="m362.16 233.78c-35.323 3.2002-71.487 2.1446-105.32 14.179-28.358 9.3613-57.187 20.531-81.081 38.69-16.554 14.281-31.567 31.362-42.747 49.974-14.922 31.381-3.2357 65.947-0.16866 98.595-36.751 29.514-73.385 61.982-92.869 105.93-13.532 28.513-15.568 60.97-13.142 92.017 3.7907 33.338 11.603 68.18 34.219 94.13 23.338 31.459 51.932 59.449 85.06 80.344 43.534 25.175 90.121 46.877 140.25 54.262 46.679 7.6197 94.738 7.2344 141.33-0.79932 52.672-10.866 105.07-26.846 150.78-55.854 44.11-26.877 78.905-68.482 96.509-117.15 10.267-33.786 16.274-70.471 9.9409-105.51-5.9356-17.008-7.4499-36.795-19.197-50.943 24.196-13.608 50.734-30.241 57.747-58.992 4.8136-18.762 6.2984-41.818-7.79-57.039-6.7395-9.5793-17.987-16.903-28.68-21.07-24.972-4.5535-50.913-5.6876-76.136-4.0253-9.9759 3.2292-23.642 0.93836-30.142 10.407 0.0164-25.003 2.1287-51.31-10.795-73.851-13.132-19.559-30.924-36.058-50.683-49.13-34.257-23.312-75.961-32.31-116.12-40.082l-40.963-4.0933zm280.69 207.88c13.634 0.045 29.082-0.9336 41.138 5.0719 6.4507 9.3897-8.4322 20.589-15.004 27.615-8.1802 7.0153-19.775 16.71-28.887 18.111-12.24-13.297-24.157-26.904-37.247-39.392 12.817-5.5136 26.592-7.7934 40-11.406z"/>
    <path id="path2892" style="fill:#cccccc" d="m202.86 772.36c39.009 16.301 77.632 34.102 116.88 49.474 30.909 2.6127 61.992 7.1498 92.793 8.5751 39.754-12.397 80.765-21.225 119.67-36.03 20.371-9.5686 42.889-15.963 61.884-27.567 17.024-17.911 35.604-34.768 51.673-53.327 10.235-26.304 26.469-50.862 28.011-79.696 5.8242-22.799-2.7608-45.713-4.4827-68.572-5.8365-7.3765-4.9893-30.23-15.963-25.71-30.419 12.783-59.859 27.819-87.608 45.71 5.414 21.288 4.0922 43.726 3.7025 65.37-6.8496 17.666-9.9361 37.541-19.131 53.831-16.338 16.047-29.966 35.499-48.06 49.34-19.784 10.762-38.918 23.583-59.109 33.058-28.294 1.5259-56.657 7.1829-84.907 6.0448-52.219-5.6085-104.08-14.123-155.35-25.5v5z"/>
    <path id="path2894" style="fill:#cccccc" d="m530 610.22c27.677-28.918 66.176-43.071 100.83-61.694 23.074-11.367 46.741-22.993 66.568-39.213 8.7527-14.247 19.314-29.751 19.575-46.48-7.3741-10.56-8.9117-27.624-23.954-29.64-6.6139-4.6058-30.242-6.3244-21.623-16.687 4.6484-7.9796 28.171-11.54 17.435-21.494-27.427-3.1862-55.518-5.9366-82.93-3.5025-11.283 0.62713-26.351 6.8634-12.59 16.974 6.8674 12.183 1.2508 20.019-9.9538 25.91-9.5643 6.7994-8.0589 21.304-11.876 31.694-6.2853 15.933 14.131 11.932 15.855-0.44834 10.475-15.025 31.915-15.714 47.948-22.329 14.201-4.1823 30.313-1.9499 44.479 1.7703 15.16 3.3379-0.9041 18.636-5.5509 25.581-21.255 17.885-44.332 32.995-69.181 45.407-17.948 10.016-35.934 19.962-54.322 29.154-4.0044 22.777-16.126 42.386-20.714 65z"/>
    <path id="path2896" style="fill:#b3b3b3" d="m555.71 582.36c39.141-19.228 80.441-35.112 116.78-59.326 15.915-11.151 32.47-23.92 37.436-43.659 6.8862-12.941 1.6056-27.376-8.9476-36.452-6.7622-11.635-22.708-6.0094-33.909-9.0347-20.737-2.8719 1.4274 10.698 11.13 7.1547 12.23-0.8541 25.563 7.9818 26.068 20.869 6.0054 12.421-9.1595 21.195-13.735 31.793-20.28 18.566-41.865 35.729-66.413 48.441-22.692 13.595-45.587 26.845-68.412 40.214z"/>
    <path id="path2898" style="fill:#999999" d="m545 571.65c20.908-22.519 42.455-45.726 71.616-57.314 19.229-8.6199 35.305-22.427 52.67-34.115 6.8229-16.82-12.506 5.6461-18.726 8.4205-26.207 21.261-58.574 32.982-87.476 50.116-13.372 2.9608-16.617 12.388-16.824 25.124-0.41988 2.5893-0.83976 5.1785-1.2596 7.7678z"/>
    <path id="path2900" style="fill:#cccccc" d="m594.29 459.51c17.55 8.7498 30.152 23.364 42.857 37.857-29.347 16.567-57.745 36.069-90 46.429 12.326-22.428 11.907-48.842 21.429-72.143 14.335 13.833 12.789-7.5012 24.496-11.478l1.2186-0.66472z"/>
    <path id="path2902" style="fill:#cccccc" d="m454.29 688.79c-24.688 11.798-48.448 26.315-73.716 36.413-32.798 5.2272-65.143 15.684-98.672 12.485-27.601-0.80821-55.564 0.19677-82.938-1.7457-39.702-15.979-79.901-30.855-117.53-51.438-11.362 1.0793-24.399 11.24-13.529 21.915 12.858 19.884 26.953 38.71 45.26 53.938 16.324 14.005 28.976 33.475 50.552 39.662 48.241 22.256 98.696 39.58 149.86 53.771 25.819 1.841 51.771 9.9288 77.399 2.8337 35.76-5.721 71.784-11.864 106.74-20.865 26.037-13.183 54.026-23.262 78.825-38.414 22.247-19.097 47.742-35.011 63.809-60.164 7.7165-8.0671 12.154-20.148 23.228-24.105-18.022 30.686-40.184 59.289-68.819 80.759-26.056 20.515-56.496 34.714-87.337 46.373-46.103 15.421-94.081 27.851-143.08 25.351-32.575 1.5181-65.324-0.83899-97.016-8.5775-30.31-7.79-60.52-17.36-88.52-31.24-27.49-18.74-58.36-33.24-80.417-58.81-22.931-22.98-45.982-47.61-58.606-77.84-10.662-28.84-14.452-59.69-11.399-90.26-1.277-17.686 3.6624-34.176 10.401-50.321 5.1254-16.678 11.143-32.871 23.573-45.585 18.88-27.293 46.191-46.982 70.505-69.122 12.372 56.521 23.118 113.75 41.028 168.73 13.002 20.365 25.163 41.411 44.023 57.036 14.143 15.696 34.031 24.646 51.756 35.505 24.272 6.5234 48.024 18.403 73.728 14.562 29.548 0.85173 58.737-5.0392 87.023-13.048 7.9569-2.5946 15.914-5.1893 23.871-7.7839z"/>
    <path id="path2904" style="fill:#999999" d="m405.71 707.36c-25.465 5.0826-50.697 12.442-76.928 10-26.833-0.95594-54.187 1.9433-80.682-1.5061-38.4-10.94-77.38-20.57-115.42-32.34-16.85-11.47-36.076-20.29-51.423-33.42-8.887-12.6-19.987-28.27-37.378-25.87-15.162 4.0765-20.773-0.71767-15.231-15.872 4.2443-23.025 1.9222-48.041 15.782-68.094 6.8995-18.128 19.533-32.299 32.903-45.96 15.544-17.874 33.051-33.939 51.239-49.077 12.788-1.4843 7.7224 19.241 12.521 27.695 9.4071 43.119 17.83 86.502 32.849 128.12 7.1657 16.691 20.284 30.678 30.719 45.576 10.231 14.613 24.915 23.843 40.339 32.18 16.556 10.709 33.692 20.092 53.198 24.065 15.492 5.3144 31.051 10.1 47.58 7.235 19.986-0.76614 39.966-1.63 59.936-2.7291z"/>
    <path id="path2906" style="fill:#e6e6e6" d="m501.43 551.65c-25.074 14.014-49.426 29.628-77.47 37.063-15.171 6.4615-30.757 10.56-47.357 8.8954-24.691 0.59881-49.407 1.5141-73.531-4.7862-18.61-2.5224-36.882-6.0883-53.037-16.188-16.74-7.0508-32.405-15.679-44.538-29.491-18.299-17.319-38.887-32.647-51.274-55.111-17.56-27.303-18.468-61.042-25.435-91.987-3.6193-18.208-4.3477-36.42-0.36287-54.639 1.6289-13.664 15.902-21.78 23.005-33.042 13.574-13.62-4.4076 10.951-7.1086 17.028-7.4265 13.622-15.22 29.427-9.2808 44.958 1.9634 15.438 9.5234 30.47 19.908 41.788 22.311 20.831 47.208 39.246 72.881 55.405 26.169 9.5771 51.723 21.447 79.855 23.713 37.632 6.3813 76.306 9.7219 114.35 5.5399 33.498-2.4444 63.308-19.024 94.644-29.683 19.067-9.7363-1.9707 7.7456-6.9202 14.309-12.705 16.147-29.664 28.212-44.199 42.192-6.7431 11.158-12.195 22.655-10.453 36.038 4.0579 4.7434 19.954-8.9241 28.638-11.376 5.5203-1.461 11.897-0.21256 17.684-0.62756z"/>
    <path id="path2908" style="fill:#808080" d="m569.29 471.65c2.6497-15.435 8.9491-30.575 6.4286-46.429-6.352 14.055-8.923 28.995-10 44.286 1.1905 0.71429 2.381 1.4286 3.5714 2.1429z"/>
    <path id="path2910" style="fill:#999999" d="m300 244.51c-15.16 13.577-26.628 30.275-36.429 47.857 16.887-6.6311 34.108-11.406 52.418-10.153 35.055-2.5168 70.287 0.53901 104.98 5.3001 18.75 4.2366 38.588 5.7328 53.943 18.514 20.641 11.918 41.043 24.149 57.156 42.026 13.686 9.0738 18.13 25.164 22.04 40.198 3.2766 9.0991-2.0716 31.599 6.3054 12.003 9.8147-11.944 9.0246-26.902 9.6556-41.455 2.8053-14.824-6.5746-28.383-12.057-41.4-15.707-19.057-34.497-35.54-55.794-47.896-26.406-12.071-53.821-21.08-82.222-27.101-22.521-5.7361-46.353-2.6409-69.441-3.2822-17.107 0.61828-34.044 0.0762-50.553 5.3885z"/>
    <path id="path2912" style="fill:#cccccc" d="m323.57 241.65c-11.679 2.5555-27.026-1.5791-32.835 11.686-10.521 11.415-17.765 25.119-25.737 38.314 16.782-7.6993 34.274-12.231 52.813-12.083 8.5338-11.488 12.732-26.978 20.759-39.346-5 0.47619-10 0.95239-15 1.4286z"/>
    <path id="path2914" style="fill:#502d16" d="m259.29 295.93c-19.966 6.542-39.843 13.265-56.533 26.48-17.748 11.373-33.057 28.009-42.602 46.688-5.3205 12.466-8.9798 27.483-5.383 40.439 14.992 21.249 39.116 32.924 58.803 49.251 31.089 11.731 61.963 26.619 95.148 30.599 40.765 3.3816 82.323 2.3571 122.44-5.7706 31.355-9.2949 64.422-16.447 90.296-37.701 15.909-9.4635 26.674-25.59 35.691-41.413-3.7368-21.086-6.4342-44.925-25.478-58.218-13.959-13.898-28.781-26.584-47.068-34.409-19.796-12.498-41.837-20.706-64.797-24.789-40.742-4.2979-81.626-4.0106-122.52-4.4728-13.912-2.0954-25.402 8.8796-37.992 13.317z"/>
    <path id="path2916" style="opacity:.3;fill:#f2f2f2" d="m267.14 304.51c-24.061 11.998-49.637 21.56-69.526 40.267-6.4466 6.3875-17.759 19.54-11.477 27.247 26.281-5.7903 52.057-16.105 76.003-28.942 18.712-6.169 37.425-12.333 57.408-11.116 38.351-1.6539 77.022-3.4266 115.26-0.24211 21.289 3.7741-5.844-3.5432-13.16-6.3213-23.203-9.3627-47.696-13.36-72.369-16.606 13.755-12.044-9.198-14.657-18.251-10.308-21.182 3.9962-42.359 5.6529-63.892 6.0226z"/>
    <path id="path2918" style="fill:#e6e6e6" d="m168.57 320.93c-10.052 12.474-21.197 24.399-22.87 41.085-4.4555 12.052-2.0737 26.235 2.0166 37.835 8.9341 18.744 3.1179-8.9048 3.7369-16.314 6.3049-20.487 15.731-41.083 17.116-62.607z"/>
  </g>
  <metadata>
    <rdf:RDF>
      <cc:Work>
        <dc:format>image/svg+xml</dc:format>
        <dc:type rdf:resource="http://purl.org/dc/dcmitype/StillImage"/>
        <cc:license rdf:resource="http://creativecommons.org/licenses/publicdomain/"/>
        <dc:publisher>
          <cc:Agent rdf:about="http://openclipart.org/">
            <dc:title>Openclipart</dc:title>
          </cc:Agent>
        </dc:publisher>
        <dc:title>Cup of Coffee</dc:title>
        <dc:date>2010-08-08T01:12:03</dc:date>
        <dc:description>A white cup of coffee on white background</dc:description>
        <dc:source>https://openclipart.org/detail/78475/cup-of-coffee-by-gingercoons</dc:source>
        <dc:creator>
          <cc:Agent>
            <dc:title>gingercoons</dc:title>
          </cc:Agent>
        </dc:creator>
        <dc:subject>
          <rdf:Bag>
            <rdf:li>beverage</rdf:li>
            <rdf:li>coffee</rdf:li>
            <rdf:li>color</rdf:li>
            <rdf:li>colour</rdf:li>
            <rdf:li>drink</rdf:li>
            <rdf:li>food</rdf:li>
          </rdf:Bag>
        </dc:subject>
      </cc:Work>
      <cc:License rdf:about="http://creativecommons.org/licenses/publicdomain/">
        <cc:permits rdf:resource="http://creativecommons.org/ns#Reproduction"/>
        <cc:permits rdf:resource="http://creativecommons.org/ns#Distribution"/>
        <cc:permits rdf:resource="http://creativecommons.org/ns#DerivativeWorks"/>
      </cc:License>
    </rdf:RDF>
  </metadata>
</svg>