<?xml version="1.0" encoding="UTF-8" standalone="no"?>
<!-- Created with Inkscape (http://www.inkscape.org/) -->
<svg xmlns:dc="http://purl.org/dc/elements/1.1/" xmlns:cc="http://creativecommons.org/ns#" xmlns:rdf="http://www.w3.org/1999/02/22-rdf-syntax-ns#" xmlns:svg="http://www.w3.org/2000/svg" xmlns="http://www.w3.org/2000/svg" xmlns:sodipodi="http://sodipodi.sourceforge.net/DTD/sodipodi-0.dtd" xmlns:inkscape="http://www.inkscape.org/namespaces/inkscape" id="svg2" version="1.1" inkscape:version="0.91 r13725" xml:space="preserve" width="810" height="311.16336" viewBox="0 0 810 311.16336" sodipodi:docname="publicdomainq-video_projector_table_version.svg" inkscape:export-filename="/media/sdb1/_GRAFIKA/Publicdomainq/publicdomainq-video_projector_table_version.png" inkscape:export-xdpi="88.795799" inkscape:export-ydpi="88.795799"><title id="title7902">Video projector - table version</title><metadata id="metadata8"><rdf:RDF><cc:Work rdf:about=""><dc:format>image/svg+xml</dc:format><dc:type rdf:resource="http://purl.org/dc/dcmitype/StillImage"/><dc:title>Video projector - table version</dc:title><cc:license rdf:resource="http://creativecommons.org/publicdomain/zero/1.0/"/><dc:subject><rdf:Bag><rdf:li>video</rdf:li><rdf:li>projector</rdf:li><rdf:li>table</rdf:li><rdf:li>PC</rdf:li><rdf:li>movie</rdf:li><rdf:li>presentation</rdf:li><rdf:li>conference</rdf:li><rdf:li>meeting</rdf:li><rdf:li>publicdomainq.net</rdf:li></rdf:Bag></dc:subject><dc:description>This image was adapted from a picture posted to publicdomainq.net. All of the images on these sites are in the public domain i.e. CC0. This site is only in Japanese but can be easily navigated with Google Translate.</dc:description></cc:Work><cc:License rdf:about="http://creativecommons.org/publicdomain/zero/1.0/"><cc:permits rdf:resource="http://creativecommons.org/ns#Reproduction"/><cc:permits rdf:resource="http://creativecommons.org/ns#Distribution"/><cc:permits rdf:resource="http://creativecommons.org/ns#DerivativeWorks"/></cc:License></rdf:RDF></metadata><defs id="defs6"><clipPath clipPathUnits="userSpaceOnUse" id="clipPath40"><path d="m 448.219,192.863 131.347,0.75 37.102,0.215 23.395,0.133 114.503,0.656 c -0.062,-0.004 -0.128,-0.004 -0.191,-0.004 l -306.156,-1.75 m -324.895,16.528 c -0.004,0.082 -0.004,0.164 -0.004,0.246 l -1.269,224.289 0.34,-59.723 0.062,-11 0.477,-84.238 0.062,-11.016 0.332,-58.558 m 648.332,223.214 -1.543,270.961 c 0.004,-0.082 0.004,-0.164 0.004,-0.246 l 1.539,-270.715 m -632.851,285.77 c 0.09,0.004 0.179,0.004 0.265,0.004 l 306.157,1.734 -306.422,-1.738" id="path42" inkscape:connector-curvature="0"/></clipPath><linearGradient x1="0" y1="0" x2="1" y2="0" gradientUnits="userSpaceOnUse" gradientTransform="matrix(575.267,579.888,579.888,-575.267,159.077,166.533)" spreadMethod="pad" id="linearGradient44"><stop style="stop-opacity:1;stop-color:#fcd79a" offset="0" id="stop46"/><stop style="stop-opacity:1;stop-color:#fff98b" offset="0.503196" id="stop48"/><stop style="stop-opacity:1;stop-color:#fab96a" offset="1" id="stop50"/></linearGradient><clipPath clipPathUnits="userSpaceOnUse" id="clipPath86"><path d="m 773.008,194.723 -649.578,-3.715 -2.992,527.262 649.574,3.683 2.996,-527.23" id="path88" inkscape:connector-curvature="0"/></clipPath><clipPath clipPathUnits="userSpaceOnUse" id="clipPath106"><path d="m 773.008,194.723 -649.578,-3.715 -2.992,527.262 649.574,3.683 2.996,-527.23" id="path108" inkscape:connector-curvature="0"/></clipPath><clipPath clipPathUnits="userSpaceOnUse" id="clipPath112"><path d="m 123.43,191.008 -0.106,18.383 c 0.192,-10.098 8.512,-18.278 18.629,-18.278 0.035,0 0.07,0 0.106,0 l 97.703,0.559 0,0 -116.332,-0.664" id="path114" inkscape:connector-curvature="0"/></clipPath><clipPath clipPathUnits="userSpaceOnUse" id="clipPath124"><path d="m 773.008,194.723 -649.578,-3.715 -2.992,527.262 649.574,3.683 2.996,-527.23" id="path126" inkscape:connector-curvature="0"/></clipPath><clipPath clipPathUnits="userSpaceOnUse" id="clipPath130"><path d="m 141.953,191.113 c -10.117,0 -18.437,8.18 -18.629,18.278 l -0.332,58.558 c 2.141,-2.629 4.438,-5.219 6.875,-7.765 23.656,-24.645 60.946,-45.766 107.571,-61.602 0.781,-2.312 1.554,-4.617 2.324,-6.91 l -97.703,-0.559 c -0.036,0 -0.071,0 -0.106,0" id="path132" inkscape:connector-curvature="0"/></clipPath><clipPath clipPathUnits="userSpaceOnUse" id="clipPath142"><path d="m 773.008,194.723 -649.578,-3.715 -2.992,527.262 649.574,3.683 2.996,-527.23" id="path144" inkscape:connector-curvature="0"/></clipPath><clipPath clipPathUnits="userSpaceOnUse" id="clipPath148"><path d="m 754.566,194.617 c 10.164,0.16 18.395,8.551 18.332,18.738 l 0,0.165 c 0,0 0,0 0.004,0 l 0.106,-18.797 -18.442,-0.106" id="path150" inkscape:connector-curvature="0"/></clipPath><clipPath clipPathUnits="userSpaceOnUse" id="clipPath160"><path d="m 773.008,194.723 -649.578,-3.715 -2.992,527.262 649.574,3.683 2.996,-527.23" id="path162" inkscape:connector-curvature="0"/></clipPath><clipPath clipPathUnits="userSpaceOnUse" id="clipPath166"><path d="m 640.063,193.961 c 7.175,2.164 14.167,4.441 20.953,6.836 3.5,0.5 6.964,0.984 10.386,1.457 29.657,4.078 55.965,6.969 74.852,8.84 12.586,1.246 21.851,2.039 26.644,2.426 l 0,-0.165 c 0.063,-10.187 -8.168,-18.578 -18.332,-18.738 l -114.503,-0.656" id="path168" inkscape:connector-curvature="0"/></clipPath><clipPath clipPathUnits="userSpaceOnUse" id="clipPath178"><path d="m 773.008,194.723 -649.578,-3.715 -2.992,527.262 649.574,3.683 2.996,-527.23" id="path180" inkscape:connector-curvature="0"/></clipPath><clipPath clipPathUnits="userSpaceOnUse" id="clipPath184"><path d="m 772.809,229.949 c 0,0 0,0 -0.004,0.004 l -0.223,39.512 0,0 0.227,-39.516" id="path186" inkscape:connector-curvature="0"/></clipPath><clipPath clipPathUnits="userSpaceOnUse" id="clipPath196"><path d="m 773.008,194.723 -649.578,-3.715 -2.992,527.262 649.574,3.683 2.996,-527.23" id="path198" inkscape:connector-curvature="0"/></clipPath><clipPath clipPathUnits="userSpaceOnUse" id="clipPath202"><path d="m 772.805,229.953 c -3.594,6.301 -8.504,14.895 -14.211,24.852 2.66,2.433 5.187,4.906 7.574,7.414 2.266,2.379 4.402,4.797 6.414,7.246 l 0.223,-39.512" id="path204" inkscape:connector-curvature="0"/></clipPath><clipPath clipPathUnits="userSpaceOnUse" id="clipPath214"><path d="m 773.008,194.723 -649.578,-3.715 -2.992,527.262 649.574,3.683 2.996,-527.23" id="path216" inkscape:connector-curvature="0"/></clipPath><clipPath clipPathUnits="userSpaceOnUse" id="clipPath220"><path d="m 771.965,378.293 0,0 -0.309,54.312 0.309,-54.312 m -649.914,55.633 -1.613,284.344 18.367,0.105 c -10.125,-0.203 -18.317,-8.578 -18.258,-18.734 l 1.504,-265.715 m 648.062,269.64 c -0.187,10.102 -8.515,18.282 -18.629,18.282 -0.035,0 -0.07,0 -0.105,0 l -306.152,-1.735 324.785,1.84 0.101,-18.387" id="path222" inkscape:connector-curvature="0"/></clipPath><clipPath clipPathUnits="userSpaceOnUse" id="clipPath232"><path d="m 773.008,194.723 -649.578,-3.715 -2.992,527.262 649.574,3.683 2.996,-527.23" id="path234" inkscape:connector-curvature="0"/></clipPath><clipPath clipPathUnits="userSpaceOnUse" id="clipPath238"><path d="m 122.391,374.203 -0.34,59.723 -1.504,265.715 c -0.059,10.156 8.133,18.531 18.258,18.734 l 306.422,1.738 306.152,1.735 c 0.035,0 0.07,0 0.105,0 10.114,0 18.442,-8.18 18.629,-18.282 l 1.543,-270.961 0.309,-54.312 c -1.836,2.191 -3.777,4.352 -5.82,6.484 -25.836,26.907 -67.911,49.618 -120.665,65.836 -7.394,14.848 -14.863,30.176 -21.371,43.68 -5.711,11.844 -10.683,22.285 -14.23,29.762 -3.547,7.476 -5.656,11.976 -5.664,11.988 l -0.699,1.492 -1.614,0.332 -0.664,-3.219 0.664,3.219 c -1.082,0.215 -2.203,0.262 -3.644,0.27 -8.992,-0.02 -30.488,-2.711 -58.586,-6.809 -84.149,-12.293 -225.426,-37.23 -241.567,-40.652 l 0,0 c -5.16,-1.106 -18.089,-2.676 -34.234,-4.324 -24.262,-2.489 -56.062,-5.235 -81.781,-7.36 -25.727,-2.125 -45.328,-3.621 -45.371,-3.625 l -3.981,-0.304 1.063,-3.848 c 0.008,-0.031 8.652,-31.301 20.316,-67.09 0.039,-0.117 0.078,-0.238 0.117,-0.359 -9.242,-6.668 -17.41,-13.692 -24.386,-21.024 -2.66,-2.797 -5.149,-5.644 -7.457,-8.539" id="path240" inkscape:connector-curvature="0"/></clipPath><clipPath clipPathUnits="userSpaceOnUse" id="clipPath250"><path d="m 773.008,194.723 -649.578,-3.715 -2.992,527.262 649.574,3.683 2.996,-527.23" id="path252" inkscape:connector-curvature="0"/></clipPath><clipPath clipPathUnits="userSpaceOnUse" id="clipPath256"><path d="m 234.758,206.477 c -9.922,3.496 -19.379,7.234 -28.328,11.191 -30.465,13.461 -55.008,29.477 -71.817,47.059 -4.441,4.652 -8.347,9.402 -11.683,14.238 l -0.477,84.238 c 3.438,5.098 7.5,10.106 12.16,15.008 6.227,6.574 13.512,12.926 21.778,19.016 5.246,-15.817 11.004,-32.172 16.812,-46.868 1.883,-4.754 3.766,-9.328 5.641,-13.66 -1.328,-4.929 -2.02,-9.961 -2.02,-15.082 l 0,-0.219 c 0.067,-17.324 8.047,-33.64 21.918,-48.121 5.063,-5.265 10.906,-10.324 17.473,-15.144 6.129,-16.02 12.48,-33.906 18.543,-51.656 m 520.484,54.16 c -6.031,10.508 -12.773,22.207 -19.695,34.152 -5.434,9.367 -10.973,18.887 -16.371,28.094 0,0.152 0,0.305 0,0.461 l 0,0.215 -0.399,0 c 0,0 0,0 0,0.004 l 0.399,0 c -0.063,17.324 -8.043,33.64 -21.914,48.121 -4.942,5.14 -10.629,10.082 -17,14.8 -0.129,0.176 -0.25,0.344 -0.371,0.504 -3.649,4.871 -10.418,16.891 -18.231,31.832 -3.816,7.285 -7.902,15.293 -12.078,23.598 14.219,-4.578 27.582,-9.637 39.973,-15.113 30.476,-13.465 55.027,-29.489 71.84,-47.071 3.984,-4.168 7.535,-8.418 10.628,-12.734 l 0.497,-87.258 c -3.207,-4.574 -6.922,-9.078 -11.118,-13.496 -1.949,-2.058 -4.004,-4.094 -6.16,-6.109" id="path258" inkscape:connector-curvature="0"/></clipPath><clipPath clipPathUnits="userSpaceOnUse" id="clipPath268"><path d="m 773.008,194.723 -649.578,-3.715 -2.992,527.262 649.574,3.683 2.996,-527.23" id="path270" inkscape:connector-curvature="0"/></clipPath><clipPath clipPathUnits="userSpaceOnUse" id="clipPath274"><path d="m 616.668,193.828 c 15.137,2.602 30.059,4.918 44.348,6.969 -6.786,-2.395 -13.778,-4.672 -20.953,-6.836 l -23.395,-0.133 m -379.23,4.754 c -46.625,15.836 -83.915,36.957 -107.571,61.602 -2.437,2.546 -4.734,5.136 -6.875,7.765 l -0.062,11.016 c 3.336,-4.836 7.242,-9.586 11.683,-14.238 16.809,-17.582 41.352,-33.598 71.817,-47.059 8.949,-3.957 18.406,-7.695 28.328,-11.191 0.902,-2.637 1.797,-5.27 2.68,-7.895 m 521.156,56.223 c -1.09,1.894 -2.207,3.843 -3.352,5.832 2.156,2.015 4.211,4.051 6.16,6.109 4.196,4.418 7.911,8.922 11.118,13.496 l 0.062,-10.777 0,0 c -2.012,-2.449 -4.148,-4.867 -6.414,-7.246 -2.387,-2.508 -4.914,-4.981 -7.574,-7.414 m -636.141,108.398 -0.062,11 c 2.308,2.895 4.797,5.742 7.457,8.539 6.976,7.332 15.144,14.356 24.386,21.024 0.707,-2.164 1.426,-4.348 2.157,-6.539 -8.266,-6.09 -15.551,-12.442 -21.778,-19.016 -4.66,-4.902 -8.722,-9.91 -12.16,-15.008 m 649.57,4.297 c -3.093,4.316 -6.644,8.566 -10.628,12.734 -16.813,17.582 -41.364,33.606 -71.84,47.071 -12.391,5.476 -25.754,10.535 -39.973,15.113 -1.359,2.703 -2.73,5.441 -4.102,8.195 52.754,-16.218 94.829,-38.929 120.665,-65.836 2.043,-2.132 3.984,-4.293 5.82,-6.484 l 0,0 0.058,-10.793" id="path276" inkscape:connector-curvature="0"/></clipPath><clipPath clipPathUnits="userSpaceOnUse" id="clipPath286"><path d="m 773.008,194.723 -649.578,-3.715 -2.992,527.262 649.574,3.683 2.996,-527.23" id="path288" inkscape:connector-curvature="0"/></clipPath><clipPath clipPathUnits="userSpaceOnUse" id="clipPath292"><path d="m 211.465,270.27 c -2.863,2.472 -5.524,4.992 -7.973,7.55 -13.062,13.676 -20.027,28.348 -20.094,43.606 l 0,0.191 c 0,1.535 0.071,3.067 0.211,4.59 3.137,-6.543 6.231,-12.215 9.231,-16.687 5.004,-7.411 11.59,-21.696 18.625,-39.25 m 499.148,67.156 c -2.91,4.918 -5.73,9.66 -8.418,14.144 -3.215,5.364 -6.23,10.348 -8.984,14.828 8.668,-9.25 14.547,-18.949 17.402,-28.972" id="path294" inkscape:connector-curvature="0"/></clipPath><clipPath clipPathUnits="userSpaceOnUse" id="clipPath304"><path d="m 773.008,194.723 -649.578,-3.715 -2.992,527.262 649.574,3.683 2.996,-527.23" id="path306" inkscape:connector-curvature="0"/></clipPath><clipPath clipPathUnits="userSpaceOnUse" id="clipPath310"><path d="m 216.215,258.133 c -6.567,4.82 -12.41,9.879 -17.473,15.144 -13.871,14.481 -21.851,30.797 -21.918,48.121 l 0,0.219 c 0,5.121 0.692,10.153 2.02,15.082 1.594,-3.687 3.187,-7.199 4.765,-10.492 -0.14,-1.523 -0.211,-3.055 -0.211,-4.59 l 0,-0.191 c 0.067,-15.258 7.032,-29.93 20.094,-43.606 2.449,-2.558 5.11,-5.078 7.973,-7.55 0.976,-2.438 1.965,-4.934 2.953,-7.489 0.598,-1.531 1.195,-3.082 1.797,-4.648 m 502.961,64.75 c -0.133,0.226 -0.266,0.453 -0.399,0.676 l 0.399,0 0,-0.215 c 0,-0.156 0,-0.309 0,-0.461 m -0.399,0.68 c -2.773,4.722 -5.507,9.367 -8.164,13.863 -2.855,10.023 -8.734,19.722 -17.402,28.972 -5.606,9.137 -10.109,16.188 -12.949,20.086 6.371,-4.718 12.058,-9.66 17,-14.8 13.871,-14.481 21.851,-30.797 21.914,-48.121 l -0.399,0" id="path312" inkscape:connector-curvature="0"/></clipPath><clipPath clipPathUnits="userSpaceOnUse" id="clipPath322"><path d="m 773.008,194.723 -649.578,-3.715 -2.992,527.262 649.574,3.683 2.996,-527.23" id="path324" inkscape:connector-curvature="0"/></clipPath><clipPath clipPathUnits="userSpaceOnUse" id="clipPath328"><path d="m 246.676,191.711 c -0.438,1.309 -0.875,2.625 -1.317,3.941 -7.921,23.629 -16.597,48.383 -24.816,69.512 -8.242,21.16 -15.922,38.578 -22.25,48.024 -5.75,8.535 -12.406,22.953 -18.977,39.589 -9.878,24.981 -19.687,55.055 -27.011,78.86 -3.664,11.902 -6.707,22.242 -8.832,29.597 -0.942,3.254 -1.703,5.922 -2.258,7.887 10.207,0.793 38.562,3.02 68.683,5.621 18.86,1.629 38.411,3.406 54.645,5.071 16.266,1.671 29.07,3.195 34.93,4.433 l 0,0 c 10.437,2.219 76.922,14.082 144.836,25.356 33.972,5.64 68.343,11.14 96.312,15.222 27.824,4.074 49.535,6.739 57.563,6.739 0.023,0 0.05,0 0.074,0 0.043,0 0.086,0 0.125,0 0.242,0 0.469,-0.004 0.68,-0.008 3.328,-7.071 16.597,-35.172 31.343,-65.258 8.528,-17.402 17.547,-35.469 25.434,-50.527 7.91,-15.09 14.57,-27.04 18.781,-32.711 3.738,-5 11.942,-18.184 21.938,-34.868 15.019,-25.066 34.257,-58.257 49.734,-85.171 7.738,-13.457 14.539,-25.344 19.402,-33.872 2.16,-3.781 3.938,-6.898 5.246,-9.199 -21.695,-1.797 -108.152,-9.59 -191.375,-26.336 l -131.347,-0.75 -201.543,-1.152 m 26.301,167.644 c 0.468,0 0.929,-0.328 2.418,-1.382 0.546,-0.387 1.168,-0.559 1.828,-0.559 4.511,0 11.023,7.957 11.023,7.957 0,0 0.586,4.91 -3.094,6.742 -3.687,1.828 -5.543,4.254 -10.445,6.114 -4.91,1.796 -34.375,9.054 -34.375,9.054 0,0 -4.887,-5.543 -3.027,-9.824 1.84,-4.289 0.023,-6.742 6.152,-9.172 6.145,-2.457 6.145,-2.457 9.231,-4.887 3.082,-2.425 -1.829,-4.281 10.437,-4.851 1.098,-0.055 2.063,-0.074 2.914,-0.074 2.688,0 4.231,0.218 5.195,0.441 0.965,0.219 1.356,0.441 1.743,0.441" id="path330" inkscape:connector-curvature="0"/></clipPath><clipPath clipPathUnits="userSpaceOnUse" id="clipPath340"><path d="m 773.008,194.723 -649.578,-3.715 -2.992,527.262 649.574,3.683 2.996,-527.23" id="path342" inkscape:connector-curvature="0"/></clipPath><clipPath clipPathUnits="userSpaceOnUse" id="clipPath346"><path d="m 239.762,191.672 0,0 c -0.77,2.293 -1.543,4.598 -2.324,6.91 -0.883,2.625 -1.778,5.258 -2.68,7.895 -6.063,17.75 -12.414,35.636 -18.543,51.656 -0.602,1.566 -1.199,3.117 -1.797,4.648 -0.988,2.555 -1.977,5.051 -2.953,7.489 -7.035,17.554 -13.621,31.839 -18.625,39.25 -3,4.472 -6.094,10.144 -9.231,16.687 -1.578,3.293 -3.171,6.805 -4.765,10.492 -1.875,4.332 -3.758,8.906 -5.641,13.66 -5.808,14.696 -11.566,31.051 -16.812,46.868 -0.731,2.191 -1.45,4.375 -2.157,6.539 -0.039,0.121 -0.078,0.242 -0.117,0.359 -11.664,35.789 -20.308,67.059 -20.316,67.09 l -1.063,3.848 3.981,0.304 c 0.043,0.004 19.644,1.5 45.371,3.625 25.719,2.125 57.519,4.871 81.781,7.36 16.145,1.648 29.074,3.218 34.234,4.324 l 0,0 c 16.141,3.422 157.418,28.359 241.567,40.652 28.098,4.098 49.594,6.789 58.586,6.809 1.441,-0.008 2.562,-0.055 3.644,-0.27 l -0.664,-3.219 0.664,3.219 1.614,-0.332 0.699,-1.492 c 0.008,-0.012 2.117,-4.512 5.664,-11.988 3.547,-7.477 8.519,-17.918 14.23,-29.762 6.508,-13.504 13.977,-28.832 21.371,-43.68 1.372,-2.754 2.743,-5.492 4.102,-8.195 4.176,-8.305 8.262,-16.313 12.078,-23.598 7.813,-14.941 14.582,-26.961 18.231,-31.832 0.121,-0.16 0.242,-0.328 0.371,-0.504 2.84,-3.898 7.343,-10.949 12.949,-20.086 2.754,-4.48 5.769,-9.464 8.984,-14.828 2.688,-4.484 5.508,-9.226 8.418,-14.144 2.657,-4.496 5.391,-9.141 8.164,-13.863 0,-0.004 0,-0.004 0,-0.004 0.133,-0.223 0.266,-0.45 0.399,-0.676 5.398,-9.207 10.937,-18.727 16.371,-28.094 6.922,-11.945 13.664,-23.644 19.695,-34.152 1.145,-1.989 2.262,-3.938 3.352,-5.832 5.707,-9.957 10.617,-18.551 14.211,-24.852 0.004,-0.004 0.004,-0.004 0.004,-0.004 l 0.093,-16.429 c -0.004,0 -0.004,0 -0.004,0 -4.793,-0.387 -14.058,-1.18 -26.644,-2.426 -18.887,-1.871 -45.195,-4.762 -74.852,-8.84 -3.422,-0.473 -6.886,-0.957 -10.386,-1.457 -14.289,-2.051 -29.211,-4.367 -44.348,-6.969 l -37.102,-0.215 c 83.223,16.746 169.68,24.539 191.375,26.336 -1.308,2.301 -3.086,5.418 -5.246,9.199 -4.863,8.528 -11.664,20.415 -19.402,33.872 -15.477,26.914 -34.715,60.105 -49.734,85.171 -9.996,16.684 -18.2,29.868 -21.938,34.868 -4.211,5.671 -10.871,17.621 -18.781,32.711 -7.887,15.058 -16.906,33.125 -25.434,50.527 -14.746,30.086 -28.015,58.187 -31.343,65.258 -0.211,0.004 -0.438,0.008 -0.68,0.008 -0.039,0 -0.082,0 -0.125,0 -0.024,0 -0.051,0 -0.074,0 -8.028,0 -29.739,-2.665 -57.563,-6.739 -27.969,-4.082 -62.34,-9.582 -96.312,-15.222 C 376.395,498.328 309.91,486.465 299.473,484.246 l 0,0 c -5.86,-1.238 -18.664,-2.762 -34.93,-4.433 -16.234,-1.665 -35.785,-3.442 -54.645,-5.071 -30.121,-2.601 -58.476,-4.828 -68.683,-5.621 0.555,-1.965 1.316,-4.633 2.258,-7.887 2.125,-7.355 5.168,-17.695 8.832,-29.597 7.324,-23.805 17.133,-53.879 27.011,-78.86 6.571,-16.636 13.227,-31.054 18.977,-39.589 6.328,-9.446 14.008,-26.864 22.25,-48.024 8.219,-21.129 16.895,-45.883 24.816,-69.512 0.442,-1.316 0.879,-2.632 1.317,-3.941 l -6.914,-0.039" id="path348" inkscape:connector-curvature="0"/></clipPath><clipPath clipPathUnits="userSpaceOnUse" id="clipPath358"><path d="m 773.008,194.723 -649.578,-3.715 -2.992,527.262 649.574,3.683 2.996,-527.23" id="path360" inkscape:connector-curvature="0"/></clipPath><clipPath clipPathUnits="userSpaceOnUse" id="clipPath364"><path d="m 277.223,357.414 c -0.66,0 -1.282,0.172 -1.828,0.559 -1.489,1.054 -1.95,1.382 -2.418,1.382 -0.387,0 -0.778,-0.222 -1.743,-0.441 -0.964,-0.223 -2.507,-0.441 -5.195,-0.441 -0.851,0 -1.816,0.019 -2.914,0.074 -12.266,0.57 -7.355,2.426 -10.437,4.851 -3.086,2.43 -3.086,2.43 -9.231,4.887 -6.129,2.43 -4.312,4.883 -6.152,9.172 -1.86,4.281 3.027,9.824 3.027,9.824 0,0 29.465,-7.258 34.375,-9.054 4.902,-1.86 6.758,-4.286 10.445,-6.114 3.68,-1.832 3.094,-6.742 3.094,-6.742 0,0 -6.512,-7.957 -11.023,-7.957" id="path366" inkscape:connector-curvature="0"/></clipPath><clipPath clipPathUnits="userSpaceOnUse" id="clipPath376"><path d="m 773.008,194.723 -649.578,-3.715 -2.992,527.262 649.574,3.683 2.996,-527.23" id="path378" inkscape:connector-curvature="0"/></clipPath><clipPath clipPathUnits="userSpaceOnUse" id="clipPath22"><path d="m 14670,6921.59 -247,0 11.3,1076.75 c 0,0 20.1,311.82 -100.5,322.18 -120.7,10.36 -402.4,29.88 -402.4,29.88 0,0 -814,39.93 -1979.1,96.41 l 0,83.57 2717.7,0 0,-1608.79" id="path24" inkscape:connector-curvature="0"/></clipPath><clipPath clipPathUnits="userSpaceOnUse" id="clipPath34"><path d="m 14423,6921.59 -2016.2,0 0,590.8 -454.5,0 0,934.42 c 1165.1,-56.48 1979.1,-96.41 1979.1,-96.41 0,0 281.7,-19.52 402.4,-29.88 120.6,-10.36 100.5,-322.18 100.5,-322.18 L 14423,6921.59" id="path36" inkscape:connector-curvature="0"/></clipPath><clipPath clipPathUnits="userSpaceOnUse" id="clipPath46"><path d="m 96.4453,6848.87 -96.4453,0 0,1217.95 1121.22,0 c -357.306,-110.8 -608.173,-189.18 -608.173,-189.18 0,0 -265.152,-62.78 -392.293,-201.26 -28.5977,-110.07 -41.4024,-294.41 -30.1837,-392.29 0,0 2.2774,-163.59 5.875,-435.22" id="path48" inkscape:connector-curvature="0"/></clipPath><clipPath clipPathUnits="userSpaceOnUse" id="clipPath58"><path d="m 9430.16,6848.87 -9333.7147,0 c -3.5976,271.63 -5.875,435.22 -5.875,435.22 -11.2187,97.88 1.586,282.22 30.1837,392.29 127.141,138.48 392.293,201.26 392.293,201.26 0,0 250.867,78.38 608.173,189.18 l 8695.14,0 0,-699.33 c -18.09,-4.14 -64.9,-15.33 -116.62,-31.24 -32.99,-10.16 -68.08,-22.25 -98.98,-35.79 -15.54,-6.79 -29.99,-13.94 -42.81,-21.5 -12.81,-7.59 -23.99,-15.56 -32.9,-24.41 -17.27,-17.33 -30.91,-41.32 -42.72,-67.72 -17.54,-39.59 -30.45,-84.79 -39.08,-120.33 -8.55,-35.51 -12.91,-61.29 -12.91,-61.54 l -0.18,-1.23 0,-1.26 0,-153.6" id="path60" inkscape:connector-curvature="0"/></clipPath><clipPath clipPathUnits="userSpaceOnUse" id="clipPath76"><path d="m 8610.32,6806.37 694.04,-30.17 0,-256.49 c 0,0 -362.09,-1342.55 -347.01,-3055.21 15.09,-1712.64 286.66,-2421.78 286.66,-2421.78 l 0,-252.759 -724.21,60.363 c 0,0 -437.57,1220.806 -362.12,3135.786 75.43,1914.98 452.64,2820.26 452.64,2820.26 z" id="path78" inkscape:connector-curvature="0"/></clipPath><linearGradient x1="0" y1="0" x2="1" y2="0" gradientUnits="userSpaceOnUse" gradientTransform="matrix(624.60371,5942.7104,5942.7104,-624.60371,8523.0594,849.99091)" spreadMethod="pad" id="linearGradient80"><stop style="stop-opacity:1;stop-color:#1d1c1c" offset="0" id="stop82"/><stop style="stop-opacity:1;stop-color:#4c4e53" offset="0.460177" id="stop84"/><stop style="stop-opacity:1;stop-color:#a8a8ab" offset="0.646018" id="stop86"/><stop style="stop-opacity:1;stop-color:#5e6268" offset="0.787611" id="stop88"/><stop style="stop-opacity:1;stop-color:#1d1c1c" offset="0.99115" id="stop90"/><stop style="stop-opacity:1;stop-color:#1d1c1c" offset="1" id="stop92"/></linearGradient><clipPath clipPathUnits="userSpaceOnUse" id="clipPath100"><path d="m 11761.4,54.3906 -129.8,0 -248,27.5586 c 104.7,-2.082 207,-22.1328 273.5,-22.1328 56.8,0 87.5,14.6055 71.4,67.4136 l 29.7,6576.22 327.4,0 -1.3,-6532.708 c -5.1,0.434 -11.2,0.746 -17.9,0.754 -21.5,-0.035 -50,-3.164 -77.4,-17.016 -11.5,-5.816 -31.9,-15.214 -55.7,-25.832 -35.8,-15.96 -79.5,-34.8394 -114.2,-49.7066 -17.4,-7.4375 -32.5,-13.8711 -43.3,-18.4414 -6.5,-2.8008 -11.5,-4.8906 -14.4,-6.1094 m -2225.26,232.9374 -72.53,8.07 -3.28,6705.812 c 0,0.21 0,0.44 0.09,0.71 1.73,9.69 10,54.95 24.82,104.29 7.36,24.67 16.36,50.33 26.72,72.93 10.36,22.58 22.36,42.04 34.45,54.07 6.18,6.24 15.45,13.05 26.9,19.76 19.9,11.81 46.17,23.37 74.26,33.81 41.99,15.71 87.89,29.01 123.25,38.34 17.63,4.66 32.63,8.33 43.17,10.84 5.28,1.26 9.46,2.22 12.37,2.86 1,0.22 1.81,0.41 2.45,0.56 l 1587.29,-58.78 0,-192.9 -1779.8,59 c -199.96,0 -150.88,-198.98 -150.88,-407.24 l 30.17,-6219.929 c 0,-137.449 -5.36,-202.125 20.55,-232.203" id="path102" inkscape:connector-curvature="0"/></clipPath><linearGradient x1="0" y1="0" x2="1" y2="0" gradientUnits="userSpaceOnUse" gradientTransform="matrix(2655.5172,0,0,-2655.5172,9445.2827,3696.9369)" spreadMethod="pad" id="linearGradient104"><stop style="stop-opacity:1;stop-color:#fbfbfa" offset="0" id="stop106"/><stop style="stop-opacity:1;stop-color:#fbfbfa" offset="0.836283" id="stop108"/><stop style="stop-opacity:1;stop-color:#eeeeed" offset="1" id="stop110"/></linearGradient><clipPath clipPathUnits="userSpaceOnUse" id="clipPath120"><path d="m 11657.1,59.8164 c -66.5,0 -168.8,20.0508 -273.5,22.1328 -5.7,0.1172 -11.4,0.1797 -17.2,0.1797 L 9606.13,263.18 c -35,2.343 -56.63,8.66 -69.99,24.148 -25.91,30.078 -20.55,94.754 -20.55,232.203 l -30.17,6219.929 c 0,208.26 -49.08,407.24 150.88,407.24 l 1779.8,-59 0,-384.25 342.1,0 -29.7,-6576.22 c 16.1,-52.8081 -14.6,-67.4136 -71.4,-67.4136" id="path122" inkscape:connector-curvature="0"/></clipPath><linearGradient x1="0" y1="0" x2="1" y2="0" gradientUnits="userSpaceOnUse" gradientTransform="matrix(2278.6312,0,0,-2278.6312,9480.1854,3603.2721)" spreadMethod="pad" id="linearGradient124"><stop style="stop-opacity:1;stop-color:#ffffff" offset="0" id="stop126"/><stop style="stop-opacity:1;stop-color:#e0dfde" offset="1" id="stop128"/></linearGradient><clipPath clipPathUnits="userSpaceOnUse" id="clipPath136"><path d="m 12406.8,6703.45 -291.1,0 0.1,128.54 -0.1,0.5 c 0,0.11 -2.4,37.49 -7.4,89.1 l 298.5,0 0,-218.14 m -454.5,565.12 c -3.7,1.02 -7.5,2 -11.3,2.97 -47.2,11.73 -99.9,18.57 -141,22.57 -41.2,3.99 -70.6,5.08 -70.9,5.1 l -313,11.59 0,201.59 536.2,0 0,-243.82" id="path138" inkscape:connector-curvature="0"/></clipPath><clipPath clipPathUnits="userSpaceOnUse" id="clipPath148-3"><path d="m 12406.8,6921.59 -298.5,0 c -2.1,21.82 -4.7,46.2 -7.7,71.36 -5,42.37 -11.4,86.98 -19,125.77 -3.8,19.41 -8,37.36 -12.7,52.98 -4.5,15.64 -9.4,28.88 -15.4,39.44 l 0,0 c -6.9,11.92 -17.6,21.13 -30.1,29 -19.5,11.99 -44.1,21.06 -71.1,28.43 l 0,243.82 454.5,0 0,-590.8" id="path150-6" inkscape:connector-curvature="0"/></clipPath><clipPath clipPathUnits="userSpaceOnUse" id="clipPath160-7"><path d="m 12085.6,6703.45 -327.4,0 0.5,126.55 c 0,208.24 -101.8,256.35 -301.7,256.35 l -40.9,1.35 0,192.9 311.9,-11.55 c 0,0 1,-0.04 2.9,-0.13 14.6,-0.66 82,-4.24 149.6,-15.74 33.8,-5.72 67.7,-13.47 94.6,-23.47 13.5,-4.98 25.2,-10.54 34.1,-16.36 9,-5.82 15,-11.86 18,-17.19 l 0,0.01 c 4.1,-7.04 8.7,-18.64 12.8,-32.97 7.4,-25.15 14.1,-58.84 19.8,-94.88 8.6,-54.1 15,-113.66 19.4,-159.61 2.2,-22.97 3.7,-42.55 4.8,-56.39 0.6,-6.9 1,-12.37 1.3,-16.12 0.2,-2.65 0.3,-4.41 0.4,-5.21 l -0.1,-127.54" id="path162-5" inkscape:connector-curvature="0"/></clipPath><clipPath clipPathUnits="userSpaceOnUse" id="clipPath172"><path d="m 12115.7,6703.45 -30.1,0 0.1,127.54 c -0.1,0.8 -0.2,2.56 -0.4,5.21 -0.3,3.75 -0.7,9.22 -1.3,16.12 -1.1,13.84 -2.6,33.42 -4.8,56.39 -4.4,45.95 -10.8,105.51 -19.4,159.61 -5.7,36.04 -12.4,69.73 -19.8,94.88 -4.1,14.33 -8.7,25.93 -12.8,32.97 l 0,-0.01 c -3,5.33 -9,11.37 -18,17.19 -8.9,5.82 -20.6,11.38 -34.1,16.36 -26.9,10 -60.8,17.75 -94.6,23.47 -67.6,11.5 -135,15.08 -149.6,15.74 -1.9,0.09 -2.9,0.13 -2.9,0.13 l -311.9,11.55 0,30.2 313,-11.59 c 0.3,-0.02 29.7,-1.11 70.9,-5.1 41.1,-4 93.8,-10.84 141,-22.57 3.8,-0.97 7.6,-1.95 11.3,-2.97 27,-7.37 51.6,-16.44 71.1,-28.43 12.5,-7.87 23.2,-17.08 30.1,-29 l 0,0 c 6,-10.56 10.9,-23.8 15.4,-39.44 4.7,-15.62 8.9,-33.57 12.7,-52.98 7.6,-38.79 14,-83.4 19,-125.77 3,-25.16 5.6,-49.54 7.7,-71.36 5,-51.61 7.4,-88.99 7.4,-89.1 l 0.1,-0.5 -0.1,-128.54" id="path174" inkscape:connector-curvature="0"/></clipPath><clipPath clipPathUnits="userSpaceOnUse" id="clipPath184-3"><path d="m 11758.2,6703.45 -342.1,0 0,384.25 40.9,-1.35 c 199.9,0 301.7,-48.11 301.7,-256.35 l -0.5,-126.55" id="path186-5" inkscape:connector-curvature="0"/></clipPath><clipPath clipPathUnits="userSpaceOnUse" id="clipPath202-6"><path d="m 11061.9,4081.3 c 0,-350.03 -283.6,-633.79 -633.7,-633.79 -350.1,0 -633.75,283.76 -633.75,633.79 0,350.03 283.65,633.75 633.75,633.75 350.1,0 633.7,-283.72 633.7,-633.75 z" id="path204-2" inkscape:connector-curvature="0"/></clipPath><linearGradient x1="0" y1="0" x2="1" y2="0" gradientUnits="userSpaceOnUse" gradientTransform="matrix(896.29522,896.29522,896.29522,-896.29522,9980.0945,3633.1485)" spreadMethod="pad" id="linearGradient206"><stop style="stop-opacity:1;stop-color:#eeeeed" offset="0" id="stop208"/><stop style="stop-opacity:1;stop-color:#8e9095" offset="1" id="stop210"/></linearGradient><clipPath clipPathUnits="userSpaceOnUse" id="clipPath220-9"><path d="m 10960.8,4081.3 c 0,-294.17 -238.4,-532.63 -532.6,-532.63 -294.2,0 -532.59,238.46 -532.59,532.63 0,294.13 238.39,532.58 532.59,532.58 294.2,0 532.6,-238.45 532.6,-532.58 z" id="path222-1" inkscape:connector-curvature="0"/></clipPath><linearGradient x1="0" y1="0" x2="1" y2="0" gradientUnits="userSpaceOnUse" gradientTransform="matrix(753.23396,753.23396,753.23396,-753.23396,10051.627,3704.6719)" spreadMethod="pad" id="linearGradient224"><stop style="stop-opacity:1;stop-color:#ffffff" offset="0" id="stop226"/><stop style="stop-opacity:1;stop-color:#eeeeed" offset="1" id="stop228"/></linearGradient><clipPath clipPathUnits="userSpaceOnUse" id="clipPath16"><path d="m 0,858.897 612.288,0 L 612.288,0 0,0 0,858.897 Z" id="path18" inkscape:connector-curvature="0"/></clipPath><clipPath clipPathUnits="userSpaceOnUse" id="clipPath52"><path d="m 87.8638,380.737 457.0552,0 0,-29.925 -457.0552,0 0,29.925 z" id="path54" inkscape:connector-curvature="0"/></clipPath><clipPath clipPathUnits="userSpaceOnUse" id="clipPath16-6"><path d="m 0,858.897 612.288,0 L 612.288,0 0,0 0,858.897 Z" id="path18-0" inkscape:connector-curvature="0"/></clipPath><clipPath clipPathUnits="userSpaceOnUse" id="clipPath52-6"><path d="m 87.8638,380.737 457.0552,0 0,-29.925 -457.0552,0 0,29.925 z" id="path54-2" inkscape:connector-curvature="0"/></clipPath><clipPath clipPathUnits="userSpaceOnUse" id="clipPath84"><path d="m 97.536,389.927 438.786,0 0,9.818 -438.786,0 0,-9.818 z" id="path86" inkscape:connector-curvature="0"/></clipPath><linearGradient x1="0" y1="0" x2="1" y2="0" gradientUnits="userSpaceOnUse" gradientTransform="matrix(0,9.8183594,9.8183594,0,316.92773,389.92676)" spreadMethod="pad" id="linearGradient92"><stop style="stop-opacity:1;stop-color:#ffffff" offset="0" id="stop94"/><stop style="stop-opacity:1;stop-color:#231f20" offset="1" id="stop96"/></linearGradient><clipPath clipPathUnits="userSpaceOnUse" id="clipPath104"><path d="m 0,858.897 612.288,0 L 612.288,0 0,0 0,858.897 Z" id="path106" inkscape:connector-curvature="0"/></clipPath><clipPath clipPathUnits="userSpaceOnUse" id="clipPath18"><path d="m 4785.21,3909.59 c -27.73,-52.89 -132.26,-166.72 -364.06,-180.08 188.91,103.28 221.72,187.27 235.55,213.67 -66.41,23.6 -240.86,63.52 -215,213.44 16.01,93.05 137.89,100.78 194.14,89.77 -160.94,207.81 48.2,435.39 193.52,282.34 197.65,164.38 568.2,-29.69 383.2,-238.67 47.03,-63.67 106.87,-162.5 90.55,-246.72 -22.35,-115.08 -144.61,-132.34 -250.08,-94.3 -45.24,-279.68 -267.82,-39.45 -267.82,-39.45 z" id="path20" inkscape:connector-curvature="0"/></clipPath><radialGradient fx="0" fy="0" cx="0" cy="0" r="1" gradientUnits="userSpaceOnUse" gradientTransform="matrix(-520.551,272.675,-272.675,-520.551,5049.99,4423.92)" spreadMethod="pad" id="radialGradient22"><stop style="stop-opacity:1;stop-color:#f5f9f9" offset="0" id="stop24"/><stop style="stop-opacity:1;stop-color:#f5f9f9" offset="0.197802" id="stop26"/><stop style="stop-opacity:1;stop-color:#d3dde8" offset="1" id="stop28"/></radialGradient><clipPath clipPathUnits="userSpaceOnUse" id="clipPath38"><path d="m 4442.64,2213.42 c 0,-167.5 -428.28,-303.28 -956.72,-303.28 -528.28,0 -956.64,135.78 -956.64,303.28 0,167.5 428.36,303.36 956.64,303.36 528.44,0 956.72,-135.86 956.72,-303.36 z" id="path40" inkscape:connector-curvature="0"/></clipPath><radialGradient fx="0" fy="0" cx="0" cy="0" r="1" gradientUnits="userSpaceOnUse" gradientTransform="matrix(3504.8,0,0,-2820.99,4471.63,2680.1)" spreadMethod="pad" id="radialGradient42"><stop style="stop-opacity:1;stop-color:#c8c9ca" offset="0" id="stop44"/><stop style="stop-opacity:1;stop-color:#c8c9ca" offset="0.005618" id="stop46-3"/><stop style="stop-opacity:1;stop-color:#191414" offset="0.44768344" id="stop48-6"/><stop style="stop-opacity:1;stop-color:#191414" offset="1" id="stop50-7"/></radialGradient><clipPath clipPathUnits="userSpaceOnUse" id="clipPath60"><path d="m 2677.01,1606.7 c 0,-309.22 -222.11,-279.92 -496.17,-279.92 l -640.94,0 c -273.98,0 -496.17,-29.3 -496.17,279.92 l 0,3243.36 c 0,309.3 222.19,280 496.17,280 l 640.94,0 c 274.06,0 496.17,29.3 496.17,-280 l 0,-3243.36 z" id="path62" inkscape:connector-curvature="0"/></clipPath><radialGradient fx="0" fy="0" cx="0" cy="0" r="1" gradientUnits="userSpaceOnUse" gradientTransform="matrix(11099.6,0,0,-12526.4,1368.22,8827.29)" spreadMethod="pad" id="radialGradient64"><stop style="stop-opacity:1;stop-color:#c8c9ca" offset="0" id="stop66"/><stop style="stop-opacity:1;stop-color:#c8c9ca" offset="0.005618" id="stop68"/><stop style="stop-opacity:1;stop-color:#c8c9ca" offset="0.0979722" id="stop70"/><stop style="stop-opacity:1;stop-color:#191414" offset="0.554945" id="stop72"/><stop style="stop-opacity:1;stop-color:#191414" offset="1" id="stop74"/></radialGradient><clipPath clipPathUnits="userSpaceOnUse" id="clipPath84-5"><path d="m 1871.7,2871 c 0.31,-61.18 -80.24,-111.96 -180.08,-113.36 -99.92,-1.49 -181.17,47.03 -181.56,108.12 l -10,1527.66 c -0.39,61.25 80.23,111.95 180.08,113.44 99.84,1.4 181.09,-46.96 181.56,-108.13 l 10,-1527.73 z" id="path86-3" inkscape:connector-curvature="0"/></clipPath><linearGradient x1="0" y1="0" x2="1" y2="0" gradientUnits="userSpaceOnUse" gradientTransform="matrix(361.722,5.29663,1.46267,-221.572,1505.02,3629.59)" spreadMethod="pad" id="linearGradient88"><stop style="stop-opacity:1;stop-color:#aaaaae" offset="0" id="stop90-5"/><stop style="stop-opacity:1;stop-color:#aaaaae" offset="0.033708" id="stop92-6"/><stop style="stop-opacity:1;stop-color:#c8c9ca" offset="0.382022" id="stop94-2"/><stop style="stop-opacity:1;stop-color:#d5d5d5" offset="1" id="stop96-9"/><stop style="stop-opacity:1;stop-color:#d5d5d5" offset="1" id="stop98"/></linearGradient><clipPath clipPathUnits="userSpaceOnUse" id="clipPath116"><path d="m 4520.37,1630.14 c 0,-313.67 -14.22,-567.82 -89.45,-567.82 0,0 -851.64,-482.179 -1691.64,0 -420,-15.62 -1652.74,0 -1652.74,0 -75.15,0 -89.45,254.15 -89.45,567.82 0,313.51 14.3,567.73 89.45,567.73 0,0 1069.38,7.74 1582.74,0 980,-544.45 1761.64,0 1761.64,0 75.23,0 89.45,-254.22 89.45,-567.73 z" id="path118" inkscape:connector-curvature="0"/></clipPath><linearGradient x1="0" y1="0" x2="1" y2="0" gradientUnits="userSpaceOnUse" gradientTransform="matrix(3523.28,0,0,-14697.7,997.089,1524.65)" spreadMethod="pad" id="linearGradient120"><stop style="stop-opacity:1;stop-color:#939297" offset="0" id="stop122"/><stop style="stop-opacity:1;stop-color:#191414" offset="0.450549" id="stop124"/><stop style="stop-opacity:1;stop-color:#c8c9ca" offset="0.681319" id="stop126-1"/><stop style="stop-opacity:1;stop-color:#c8c9ca" offset="0.7335495" id="stop128-2"/><stop style="stop-opacity:1;stop-color:#191414" offset="0.983516" id="stop130"/><stop style="stop-opacity:1;stop-color:#191414" offset="1" id="stop132"/></linearGradient><clipPath clipPathUnits="userSpaceOnUse" id="clipPath142-7"><path d="m 4673.73,3235.45 c -56.48,164.61 -442.66,113.2 -490.62,84.92 l 15.78,-156.17 c 79.68,13.75 238.12,17.11 266.25,-65.08 58.75,-171.25 -120.32,-450.47 -202.43,-565.55 l 28.21,-278.43 c 0,0 502.34,631.56 382.81,980.31 z" id="path144-0" inkscape:connector-curvature="0"/></clipPath><radialGradient fx="0" fy="0" cx="0" cy="0" r="1" gradientUnits="userSpaceOnUse" gradientTransform="matrix(1541.76,0,0,-2429.27,4769.42,3537.17)" spreadMethod="pad" id="radialGradient146"><stop style="stop-opacity:1;stop-color:#c8c9ca" offset="0" id="stop148"/><stop style="stop-opacity:1;stop-color:#c8c9ca" offset="0.005618" id="stop150"/><stop style="stop-opacity:1;stop-color:#c8c9ca" offset="0.0979722" id="stop152"/><stop style="stop-opacity:1;stop-color:#191414" offset="0.554945" id="stop154"/><stop style="stop-opacity:1;stop-color:#191414" offset="1" id="stop156"/></radialGradient><clipPath clipPathUnits="userSpaceOnUse" id="clipPath166-9"><path d="m 3635.6,1902.32 c -452.89,0 -787.96,194.46 -772.03,484.3 0.4,7.2 0.93,15.15 1.57,23.75 28.78,-257.51 348.48,-426.33 770.46,-426.33 415.07,0 750.37,168.17 780.73,437.23 0.18,-1.83 0.35,-3.64 0.52,-5.43 29.69,-313.2 -328.28,-513.52 -781.25,-513.52" id="path168-3" inkscape:connector-curvature="0"/></clipPath><radialGradient fx="0" fy="0" cx="0" cy="0" r="1" gradientUnits="userSpaceOnUse" gradientTransform="matrix(2555.84,0,0,-3255.02,4169.42,3291.03)" spreadMethod="pad" id="radialGradient170"><stop style="stop-opacity:1;stop-color:#c8c9ca" offset="0" id="stop172"/><stop style="stop-opacity:1;stop-color:#c8c9ca" offset="0.005618" id="stop174"/><stop style="stop-opacity:1;stop-color:#c8c9ca" offset="0.0979722" id="stop176"/><stop style="stop-opacity:1;stop-color:#191414" offset="0.554945" id="stop178"/><stop style="stop-opacity:1;stop-color:#191414" offset="1" id="stop180"/></radialGradient><clipPath clipPathUnits="userSpaceOnUse" id="clipPath190"><path d="m 3635.6,1984.04 c -421.98,0 -741.68,168.82 -770.46,426.33 -2.11,18.86 -2.65,38.19 -1.57,57.97 11.96,214.77 105.79,629.14 151.25,898.59 -3.15,-0.44 -6.56,-0.66 -10.24,-0.66 -92.39,0 -339.38,136.4 -259.21,174.57 16.25,7.66 251.17,6.95 382.58,62.73 5.08,5.63 10,11.65 15.08,17.11 45.92,47.87 158.88,73.13 281.9,85.58 65.77,-50.01 158.51,-114.93 179.66,-173 23.05,-63.2 3.67,-47.5 -11.17,-117.11 -11.88,-56.17 -69.92,-145 -59.38,-200 3.13,-16.72 57.03,-54.22 66.25,-81.09 24.15,-70.69 6.77,-173.55 4.47,-255.55 -162.89,-2.5 -349.19,-19.69 -550.48,-63.28 C 3007.64,2592.79 2961,2337.4 2961,2337.4 c 0,0 188.74,-287.82 589,-287.85 9.66,0 19.37,0.17 29.28,0.51 618.28,21.25 758.28,287.34 758.28,287.34 l -81.64,468.21 c 0,0 -191.44,59.54 -497.23,71.97 3.48,9.21 6.29,20.52 7.77,35.21 11.96,117.74 -104.06,229.3 -93.9,362.27 9.12,119.73 89.27,303.72 53.58,440.03 175.19,-9.88 375.13,-56.11 406.73,-100.19 164.85,-230.47 259.69,-862.11 283.98,-1117.42 2.49,-26.2 2.26,-51.64 -0.52,-76.21 -30.36,-269.06 -365.66,-437.23 -780.73,-437.23" id="path192" inkscape:connector-curvature="0"/></clipPath><radialGradient fx="0" fy="0" cx="0" cy="0" r="1" gradientUnits="userSpaceOnUse" gradientTransform="matrix(1158.88,0,0,-1475.9,4045.72,2707.55)" spreadMethod="pad" id="radialGradient194"><stop style="stop-opacity:1;stop-color:#f5f9f9" offset="0" id="stop196"/><stop style="stop-opacity:1;stop-color:#f5f9f9" offset="0.197802" id="stop198"/><stop style="stop-opacity:1;stop-color:#d3dde8" offset="1" id="stop200"/></radialGradient><clipPath clipPathUnits="userSpaceOnUse" id="clipPath210"><path d="m 3758.69,2877.58 c -35.61,1.45 -72.78,2.25 -111.36,2.25 -14.01,0 -28.19,-0.1 -42.57,-0.32 2.3,82 19.68,184.86 -4.47,255.55 -9.22,26.87 -63.12,64.37 -66.25,81.09 -10.54,55 47.5,143.83 59.38,200 14.84,69.61 34.22,53.91 11.17,117.11 -21.15,58.07 -113.89,122.99 -179.66,173 -17.06,12.97 -32.3,24.93 -44.01,35.52 l -23.28,23.28 c 44.24,33.03 132.16,65.13 210.81,65.13 57.88,0 110.74,-17.39 137.47,-64.58 8.97,-15.88 15.57,-32.79 20.22,-50.52 35.69,-136.31 -44.46,-320.3 -53.58,-440.03 -10.16,-132.97 105.86,-244.53 93.9,-362.27 -1.48,-14.69 -4.29,-26 -7.77,-35.21" id="path212" inkscape:connector-curvature="0"/></clipPath><linearGradient x1="0" y1="0" x2="1" y2="0" gradientUnits="userSpaceOnUse" gradientTransform="matrix(69.9947,-1726.56,-1726.56,-69.9947,3568.8,3554.15)" spreadMethod="pad" id="linearGradient214"><stop style="stop-opacity:1;stop-color:#aa756a" offset="0" id="stop216"/><stop style="stop-opacity:1;stop-color:#914f47" offset="0.505618" id="stop218"/><stop style="stop-opacity:1;stop-color:#4f2922" offset="1" id="stop220"/></linearGradient><clipPath clipPathUnits="userSpaceOnUse" id="clipPath232-6"><path d="m 4302.25,3296.86 c 0,-40.63 0,-58.36 -62.89,-88.83 0,0 -311.57,-86.88 -606.1,-92.11 -327.89,-5.7 -605.94,92.11 -605.94,92.11 -44.06,12.97 -58.36,30.7 -58.36,71.33 0,40.7 10.94,75.93 58.36,75.93 0,0 263.68,-105.07 600.47,-92.03 319.07,12.35 611.57,92.03 611.57,92.03 47.42,0 62.89,-17.73 62.89,-58.43 z" id="path234-0" inkscape:connector-curvature="0"/></clipPath><radialGradient fx="0" fy="0" cx="0" cy="0" r="1" gradientUnits="userSpaceOnUse" gradientTransform="matrix(3248.54,0,0,-2788.28,4152.13,3291.09)" spreadMethod="pad" id="radialGradient236"><stop style="stop-opacity:1;stop-color:#c8c9ca" offset="0" id="stop238"/><stop style="stop-opacity:1;stop-color:#c8c9ca" offset="0.005618" id="stop240"/><stop style="stop-opacity:1;stop-color:#c8c9ca" offset="0.0979722" id="stop242"/><stop style="stop-opacity:1;stop-color:#191414" offset="0.554945" id="stop244"/><stop style="stop-opacity:1;stop-color:#191414" offset="1" id="stop246"/></radialGradient><clipPath clipPathUnits="userSpaceOnUse" id="clipPath256-6"><path d="m 2880.14,5106.54 c 649.22,279.77 1477.97,-10.31 1477.97,-10.31 0,0 -61.72,-1238.28 -325.63,-1435.23 -95,-70.94 -752.11,-80.55 -832.11,0 -200.55,202.11 -320.23,1445.54 -320.23,1445.54 z" id="path258-2" inkscape:connector-curvature="0"/></clipPath><linearGradient x1="0" y1="0" x2="1" y2="0" gradientUnits="userSpaceOnUse" gradientTransform="matrix(-1477.98,0,0,1584.11,4358.11,4416.2)" spreadMethod="pad" id="linearGradient260"><stop style="stop-opacity:1;stop-color:#191414" offset="0" id="stop262"/><stop style="stop-opacity:1;stop-color:#7d8389" offset="0.324176" id="stop264"/><stop style="stop-opacity:1;stop-color:#7d8389" offset="0.46162234" id="stop266"/><stop style="stop-opacity:1;stop-color:#191414" offset="0.928571" id="stop268"/><stop style="stop-opacity:1;stop-color:#191414" offset="1" id="stop270"/></linearGradient><clipPath clipPathUnits="userSpaceOnUse" id="clipPath280"><path d="m 4512.56,5149.43 c 0,-75.07 -14.22,-136.01 -89.45,-136.01 l -3344.38,0 c -75.16,0 -89.453,60.94 -89.453,136.01 0,75.24 14.293,136.18 89.453,136.18 l 3344.38,0 c 75.23,0 89.45,-60.94 89.45,-136.18 z" id="path282" inkscape:connector-curvature="0"/></clipPath><radialGradient fx="0" fy="0" cx="0" cy="0" r="1" gradientUnits="userSpaceOnUse" gradientTransform="matrix(9848.44,0,0,-9848.44,-1227.36,5153.41)" spreadMethod="pad" id="radialGradient284"><stop style="stop-opacity:1;stop-color:#c8c9ca" offset="0" id="stop286"/><stop style="stop-opacity:1;stop-color:#c8c9ca" offset="0.005618" id="stop288"/><stop style="stop-opacity:1;stop-color:#191414" offset="0.44768344" id="stop290"/><stop style="stop-opacity:1;stop-color:#191414" offset="1" id="stop292"/></radialGradient><clipPath clipPathUnits="userSpaceOnUse" id="clipPath302"><path d="m 3550,2049.55 c -400.26,0.03 -589,287.85 -589,287.85 0,0 46.64,255.39 93.28,478.83 201.29,43.59 387.59,60.78 550.48,63.28 14.38,0.22 28.56,0.32 42.57,0.32 38.58,0 75.75,-0.8 111.36,-2.25 305.79,-12.43 497.23,-71.97 497.23,-71.97 l 81.64,-468.21 c 0,0 -140,-266.09 -758.28,-287.34 -9.91,-0.34 -19.62,-0.51 -29.28,-0.51 m 87.56,788.01 c -277.03,0 -501.56,-28.59 -501.56,-63.91 0,-35.23 224.53,-63.83 501.56,-63.83 277.19,0 501.72,28.6 501.72,63.83 0,35.32 -224.53,63.91 -501.72,63.91" id="path304" inkscape:connector-curvature="0"/></clipPath><linearGradient x1="0" y1="0" x2="1" y2="0" gradientUnits="userSpaceOnUse" gradientTransform="matrix(67.476,-1664.43,-1664.43,-67.476,3602.1,3501.26)" spreadMethod="pad" id="linearGradient306"><stop style="stop-opacity:1;stop-color:#aa756a" offset="0" id="stop308"/><stop style="stop-opacity:1;stop-color:#914f47" offset="0.505618" id="stop310"/><stop style="stop-opacity:1;stop-color:#4f2922" offset="1" id="stop312"/></linearGradient><clipPath clipPathUnits="userSpaceOnUse" id="clipPath320"><path d="m 3637.56,2709.82 c -277.03,0 -501.56,28.6 -501.56,63.83 0,35.32 224.53,63.91 501.56,63.91 277.19,0 501.72,-28.59 501.72,-63.91 0,-35.23 -224.53,-63.83 -501.72,-63.83" id="path322" inkscape:connector-curvature="0"/></clipPath><style id="style7911" type="text/css"><![CDATA[
    .str8 {stroke:#40201D;stroke-width:3.21654}
    .str7 {stroke:#40201D;stroke-width:4.2874}
    .str3 {stroke:#332C2B;stroke-width:10.7165}
    .str0 {stroke:#40201D;stroke-width:10.7165}
    .str1 {stroke:#72332C;stroke-width:10.7165}
    .str6 {stroke:#B2B4A9;stroke-width:10.7165}
    .str2 {stroke:#C4A494;stroke-width:10.7165}
    .str5 {stroke:#EDEFDF;stroke-width:10.7165}
    .str4 {stroke:#863A32;stroke-width:21.4331}
    .fil0 {fill:none;fill-rule:nonzero}
    .fil12 {fill:#332C2B;fill-rule:nonzero}
    .fil11 {fill:#40201D;fill-rule:nonzero}
    .fil13 {fill:#6B3029;fill-rule:nonzero}
    .fil8 {fill:#72332C;fill-rule:nonzero}
    .fil9 {fill:#863A32;fill-rule:nonzero}
    .fil2 {fill:#9A4239;fill-rule:nonzero}
    .fil6 {fill:#C9CBBF;fill-rule:nonzero}
    .fil4 {fill:#CED0C3;fill-rule:nonzero}
    .fil7 {fill:#D5D7BA;fill-rule:nonzero}
    .fil5 {fill:#E1E3D5;fill-rule:nonzero}
    .fil3 {fill:#EDEFDF;fill-rule:nonzero}
    .fil10 {fill:#FBDFBD;fill-rule:nonzero}
    .fil1 {fill:#FEFEFE;fill-rule:nonzero}
   ]]></style><clipPath clipPathUnits="userSpaceOnUse" id="clipPath34-3"><path d="m 5005.24,644.039 c 0,-128.168 -104.06,-232.168 -232.3,-232.168 l -4300.952,0 c -128.32,0 -232.383,104 -232.383,232.168 l 0,656.441 c 0,128.32 104.063,232.39 232.383,232.39 l 4300.952,0 c 128.24,0 232.3,-104.07 232.3,-232.39 l 0,-656.441 z" id="path36-6" inkscape:connector-curvature="0"/></clipPath><linearGradient x1="0" y1="0" x2="1" y2="0" gradientUnits="userSpaceOnUse" gradientTransform="matrix(4326.45,-1149.85,-1149.85,-4326.45,478.695,1542.12)" spreadMethod="pad" id="linearGradient38"><stop style="stop-opacity:1;stop-color:#e3e5e6" offset="0" id="stop40"/><stop style="stop-opacity:1;stop-color:#e3e5e6" offset="0.005618" id="stop42"/><stop style="stop-opacity:1;stop-color:#fffde0" offset="0.252809" id="stop44-7"/><stop style="stop-opacity:1;stop-color:#fffde0" offset="0.30312986" id="stop46-5"/><stop style="stop-opacity:1;stop-color:#d7ccbe" offset="0.595506" id="stop48-3"/><stop style="stop-opacity:1;stop-color:#d7ccbe" offset="0.60107303" id="stop50-5"/><stop style="stop-opacity:1;stop-color:#f0efef" offset="0.786517" id="stop52"/><stop style="stop-opacity:1;stop-color:#d7d5b2" offset="1" id="stop54"/></linearGradient><clipPath clipPathUnits="userSpaceOnUse" id="clipPath64"><path d="m 4250.65,973.949 c 0,-303.609 -246.23,-549.699 -549.84,-549.699 -303.62,0 -549.85,246.09 -549.85,549.699 0,303.611 246.23,549.701 549.85,549.701 303.61,0 549.84,-246.09 549.84,-549.701 z" id="path66" inkscape:connector-curvature="0"/></clipPath><radialGradient fx="0" fy="0" cx="0" cy="0" r="1" gradientUnits="userSpaceOnUse" gradientTransform="matrix(549.773,0,0,-549.773,3700.81,973.95)" spreadMethod="pad" id="radialGradient68"><stop style="stop-opacity:1;stop-color:#ffffff" offset="0" id="stop70-6"/><stop style="stop-opacity:1;stop-color:#ffffff" offset="0.12900086" id="stop72-2"/><stop style="stop-opacity:1;stop-color:#ffffff" offset="0.767303" id="stop74-9"/><stop style="stop-opacity:1;stop-color:#ffffff" offset="0.80642459" id="stop76"/><stop style="stop-opacity:1;stop-color:#7d7b7b" offset="1" id="stop78"/></radialGradient><clipPath clipPathUnits="userSpaceOnUse" id="clipPath96"><path d="m 4017.5,973.949 c 0,-174.937 -141.9,-316.679 -316.69,-316.679 -174.94,0 -316.69,141.742 -316.69,316.679 0,174.871 141.75,316.691 316.69,316.691 174.79,0 316.69,-141.82 316.69,-316.691 z" id="path98" inkscape:connector-curvature="0"/></clipPath><radialGradient fx="0" fy="0" cx="0" cy="0" r="1" gradientUnits="userSpaceOnUse" gradientTransform="matrix(316.688,0,0,-316.688,3700.81,973.95)" spreadMethod="pad" id="radialGradient100"><stop style="stop-opacity:1;stop-color:#6a868a" offset="0" id="stop102"/><stop style="stop-opacity:1;stop-color:#375259" offset="0.539326" id="stop104"/><stop style="stop-opacity:1;stop-color:#1b2e32" offset="1" id="stop106-1"/></radialGradient></defs><sodipodi:namedview pagecolor="#ffffff" bordercolor="#666666" borderopacity="1" objecttolerance="10" gridtolerance="10" guidetolerance="10" inkscape:pageopacity="0" inkscape:pageshadow="2" inkscape:window-width="1920" inkscape:window-height="1125" id="namedview4" showgrid="false" inkscape:zoom="1.0697484" inkscape:cx="533.58502" inkscape:cy="133.22547" inkscape:window-x="0" inkscape:window-y="0" inkscape:window-maximized="1" inkscape:current-layer="g8067" fit-margin-top="5" fit-margin-left="5" fit-margin-bottom="5" fit-margin-right="5"/><g transform="matrix(2.9750633,0,0,-2.9750633,-423.78575,1533.4762)" id="g16" style="stroke:#000000;stroke-width:0.33612731;stroke-miterlimit:4;stroke-dasharray:none;stroke-opacity:1"><g style="clip-rule:evenodd;fill-rule:evenodd;stroke:#000000;stroke-width:1.74801898;stroke-miterlimit:4;stroke-dasharray:none;stroke-opacity:1;image-rendering:optimizeQuality;shape-rendering:geometricPrecision;text-rendering:geometricPrecision" id="g8067" transform="matrix(0.09614521,0,0,-0.09614521,-544.14025,896.46672)"><g id="g12" transform="matrix(0.55204594,0,0,-0.55204594,7080.3767,5111.6006)"><path d="m 3384.12,278.422 c 0,-38.461 -31.22,-69.684 -69.68,-69.684 l -1998.5,0 c -38.45,0 -69.74,31.223 -69.74,69.684 l 0,76.148 c 0,38.391 31.29,69.68 69.74,69.68 l 1998.5,0 c 38.46,0 69.68,-31.289 69.68,-69.68 l 0,-76.148" style="fill:#a7a5a6;fill-opacity:1;fill-rule:nonzero;stroke:none" id="path14" inkscape:connector-curvature="0"/><path d="m 3384.12,278.422 c 0,-38.461 -31.22,-69.684 -69.68,-69.684 l -1998.5,0 c -38.45,0 -69.74,31.223 -69.74,69.684 l 0,76.148 c 0,38.391 31.29,69.68 69.74,69.68 l 1998.5,0 c 38.46,0 69.68,-31.289 69.68,-69.68 l 0,-76.148 z" style="fill:none;stroke:#231f20;stroke-width:36;stroke-linecap:round;stroke-linejoin:round;stroke-miterlimit:10;stroke-dasharray:none;stroke-opacity:1" id="path16" inkscape:connector-curvature="0"/><path d="m 487.457,177.73 255.441,0 0,156.73 -255.441,0 0,-156.73 z" style="fill:#a7a5a6;fill-opacity:1;fill-rule:nonzero;stroke:none" id="path18-2" inkscape:connector-curvature="0"/><path d="m 487.457,177.73 255.441,0 0,156.73 -255.441,0 0,-156.73 z" style="fill:none;stroke:#231f20;stroke-width:72;stroke-linecap:round;stroke-linejoin:round;stroke-miterlimit:10;stroke-dasharray:none;stroke-opacity:1" id="path20-7" inkscape:connector-curvature="0"/><path d="m 4606.72,177.73 255.582,0 0,156.73 -255.582,0 0,-156.73 z" style="fill:#a7a5a6;fill-opacity:1;fill-rule:nonzero;stroke:none" id="path22" inkscape:connector-curvature="0"/><path d="m 4606.72,177.73 255.582,0 0,156.73 -255.582,0 0,-156.73 z" style="fill:none;stroke:#231f20;stroke-width:72;stroke-linecap:round;stroke-linejoin:round;stroke-miterlimit:10;stroke-dasharray:none;stroke-opacity:1" id="path24-0" inkscape:connector-curvature="0"/><path d="m 5164.15,611.422 c 0,-192.512 -155.88,-348.543 -348.47,-348.543 l -4289.551,0 C 333.68,262.879 177.73,418.91 177.73,611.422 l 7.735,929.038 c 0,192.52 375.051,366.54 567.558,366.54 0,0 1220.487,105.96 1940.837,105.96 720.42,0 1650.24,-85.22 1650.24,-85.22 192.37,0 827.93,-147.17 827.93,-387.28 l -7.88,-929.038" style="fill:#f6f3d7;fill-opacity:1;fill-rule:nonzero;stroke:none" id="path26" inkscape:connector-curvature="0"/><path d="m 5164.15,611.422 c 0,-192.512 -155.88,-348.543 -348.47,-348.543 l -4289.551,0 C 333.68,262.879 177.73,418.91 177.73,611.422 l 7.735,929.038 c 0,192.52 375.051,366.54 567.558,366.54 0,0 1220.487,105.96 1940.837,105.96 720.42,0 1650.24,-85.22 1650.24,-85.22 192.37,0 827.93,-147.17 827.93,-387.28 l -7.88,-929.038 z" style="fill:none;stroke:#231f20;stroke-width:72;stroke-linecap:round;stroke-linejoin:round;stroke-miterlimit:10;stroke-dasharray:none;stroke-opacity:1" id="path28" inkscape:connector-curvature="0"/><g id="g30"><g id="g32" clip-path="url(#clipPath34-3)"><path d="m 5005.24,644.039 c 0,-128.168 -104.06,-232.168 -232.3,-232.168 l -4300.952,0 c -128.32,0 -232.383,104 -232.383,232.168 l 0,656.441 c 0,128.32 104.063,232.39 232.383,232.39 l 4300.952,0 c 128.24,0 232.3,-104.07 232.3,-232.39 l 0,-656.441" style="fill:url(#linearGradient38);fill-opacity:1;fill-rule:nonzero;stroke:none" id="path56" inkscape:connector-curvature="0"/></g></g><path d="m 5005.24,644.039 c 0,-128.168 -104.06,-232.168 -232.3,-232.168 l -4300.952,0 c -128.32,0 -232.383,104 -232.383,232.168 l 0,656.441 c 0,128.32 104.063,232.39 232.383,232.39 l 4300.952,0 c 128.24,0 232.3,-104.07 232.3,-232.39 l 0,-656.441 z" style="fill:none;stroke:#d3d2d2;stroke-width:72;stroke-linecap:round;stroke-linejoin:round;stroke-miterlimit:10;stroke-dasharray:none;stroke-opacity:1" id="path58" inkscape:connector-curvature="0"/><g id="g60"><g id="g62" clip-path="url(#clipPath64)"><path d="m 4250.65,973.949 c 0,-303.609 -246.23,-549.699 -549.84,-549.699 -303.62,0 -549.85,246.09 -549.85,549.699 0,303.611 246.23,549.701 549.85,549.701 303.61,0 549.84,-246.09 549.84,-549.701" style="fill:url(#radialGradient68);fill-opacity:1;fill-rule:nonzero;stroke:none" id="path80" inkscape:connector-curvature="0"/></g></g><path d="m 4250.65,973.949 c 0,-303.609 -246.23,-549.699 -549.84,-549.699 -303.62,0 -549.85,246.09 -549.85,549.699 0,303.611 246.23,549.701 549.85,549.701 303.61,0 549.84,-246.09 549.84,-549.701 z" style="fill:none;stroke:#231f20;stroke-width:90;stroke-linecap:butt;stroke-linejoin:miter;stroke-miterlimit:10;stroke-dasharray:none;stroke-opacity:1" id="path82" inkscape:connector-curvature="0"/><path d="m 4140.61,973.949 c 0,-243 -196.94,-439.871 -439.8,-439.871 -242.86,0 -439.81,196.871 -439.81,439.871 0,242.931 196.95,439.881 439.81,439.881 242.86,0 439.8,-196.95 439.8,-439.881" style="fill:#231f20;fill-opacity:1;fill-rule:nonzero;stroke:none" id="path84" inkscape:connector-curvature="0"/><path d="m 4140.61,973.949 c 0,-243 -196.94,-439.871 -439.8,-439.871 -242.86,0 -439.81,196.871 -439.81,439.871 0,242.931 196.95,439.881 439.81,439.881 242.86,0 439.8,-196.95 439.8,-439.881 z" style="fill:none;stroke:#231f20;stroke-width:90;stroke-linecap:butt;stroke-linejoin:miter;stroke-miterlimit:10;stroke-dasharray:none;stroke-opacity:1" id="path86-9" inkscape:connector-curvature="0"/><path d="m 4096.73,973.949 c 0,-218.597 -177.32,-395.789 -395.92,-395.789 -218.54,0 -395.79,177.192 -395.79,395.789 0,218.601 177.25,395.791 395.79,395.791 218.6,0 395.92,-177.19 395.92,-395.791" style="fill:#7b7979;fill-opacity:1;fill-rule:nonzero;stroke:none" id="path88-3" inkscape:connector-curvature="0"/><path d="m 4096.73,973.949 c 0,-218.597 -177.32,-395.789 -395.92,-395.789 -218.54,0 -395.79,177.192 -395.79,395.789 0,218.601 177.25,395.791 395.79,395.791 218.6,0 395.92,-177.19 395.92,-395.791 z" style="fill:none;stroke:#231f20;stroke-width:90;stroke-linecap:butt;stroke-linejoin:miter;stroke-miterlimit:10;stroke-dasharray:none;stroke-opacity:1" id="path90" inkscape:connector-curvature="0"/><g id="g92"><g id="g94" clip-path="url(#clipPath96)"><path d="m 4017.5,973.949 c 0,-174.937 -141.9,-316.679 -316.69,-316.679 -174.94,0 -316.69,141.742 -316.69,316.679 0,174.871 141.75,316.691 316.69,316.691 174.79,0 316.69,-141.82 316.69,-316.691" style="fill:url(#radialGradient100);fill-opacity:1;fill-rule:nonzero;stroke:none" id="path108-6" inkscape:connector-curvature="0"/></g></g><path d="m 4017.5,973.949 c 0,-174.937 -141.9,-316.679 -316.69,-316.679 -174.94,0 -316.69,141.742 -316.69,316.679 0,174.871 141.75,316.691 316.69,316.691 174.79,0 316.69,-141.82 316.69,-316.691 z" style="fill:none;stroke:#231f20;stroke-width:90;stroke-linecap:butt;stroke-linejoin:miter;stroke-miterlimit:10;stroke-dasharray:none;stroke-opacity:1" id="path110" inkscape:connector-curvature="0"/><path d="m 386.844,1323.76 1122.68,0 0,90.0703 -1122.68,0 0,-90.0703 z" style="fill:#231f20;fill-opacity:1;fill-rule:nonzero;stroke:none" id="path112" inkscape:connector-curvature="0"/><path d="m 386.844,1159.65 1486.61,0 0,90.0664 -1486.61,0 0,-90.0664 z" style="fill:#231f20;fill-opacity:1;fill-rule:nonzero;stroke:none" id="path114-0" inkscape:connector-curvature="0"/><path d="m 386.844,995.398 1486.61,0 0,90.1406 -1486.61,0 0,-90.1406 z" style="fill:#231f20;fill-opacity:1;fill-rule:nonzero;stroke:none" id="path116" inkscape:connector-curvature="0"/><path d="m 386.844,831.289 1486.61,0 0,89.9297 -1486.61,0 0,-89.9297 z" style="fill:#231f20;fill-opacity:1;fill-rule:nonzero;stroke:none" id="path118-6" inkscape:connector-curvature="0"/><path d="m 386.844,667.18 1486.61,0 0,89.8594 -1486.61,0 0,-89.8594 z" style="fill:#231f20;fill-opacity:1;fill-rule:nonzero;stroke:none" id="path120" inkscape:connector-curvature="0"/><path d="m 386.844,503 1122.68,0 0,89.9297 -1122.68,0 0,-89.9297 z" style="fill:#231f20;fill-opacity:1;fill-rule:nonzero;stroke:none" id="path122-2" inkscape:connector-curvature="0"/><path d="m 4174.29,411.871 0,-85.141 c 0,-38.468 31.22,-69.832 69.68,-69.832 l 294.96,0 c 38.54,0 69.75,31.364 69.75,69.832 l 0,85.141 -434.39,0" style="fill:#231f20;fill-opacity:1;fill-rule:nonzero;stroke:none" id="path124" inkscape:connector-curvature="0"/><path d="m 4174.29,411.871 0,-85.141 c 0,-38.468 31.22,-69.832 69.68,-69.832 l 294.96,0 c 38.54,0 69.75,31.364 69.75,69.832 l 0,85.141 -434.39,0 z" style="fill:none;stroke:#656263;stroke-width:36;stroke-linecap:round;stroke-linejoin:round;stroke-miterlimit:10;stroke-dasharray:none;stroke-opacity:1" id="path126-6" inkscape:connector-curvature="0"/><path d="m 3261,295.859 194,0 0,87.1211 -194,0 0,-87.1211 z" style="fill:#231f20;fill-opacity:1;fill-rule:nonzero;stroke:none" id="path128" inkscape:connector-curvature="0"/><path d="m 3261,295.859 194,0 0,87.1211 -194,0 0,-87.1211 z" style="fill:none;stroke:#656263;stroke-width:36;stroke-linecap:round;stroke-linejoin:round;stroke-miterlimit:10;stroke-dasharray:none;stroke-opacity:1" id="path130" inkscape:connector-curvature="0"/><path d="m 3005.48,295.859 194,0 0,87.1211 -194,0 0,-87.1211 z" style="fill:#231f20;fill-opacity:1;fill-rule:nonzero;stroke:none" id="path132-1" inkscape:connector-curvature="0"/><path d="m 3005.48,295.859 194,0 0,87.1211 -194,0 0,-87.1211 z" style="fill:none;stroke:#656263;stroke-width:36;stroke-linecap:round;stroke-linejoin:round;stroke-miterlimit:10;stroke-dasharray:none;stroke-opacity:1" id="path134" inkscape:connector-curvature="0"/><path d="m 3102.52,1596.64 96.9609,0 0,81.2773 -96.9609,0 0,-81.2773 z" style="fill:#ed1c24;fill-opacity:1;fill-rule:nonzero;stroke:none" id="path136" inkscape:connector-curvature="0"/><path d="m 3102.52,1596.64 96.9609,0 0,81.2773 -96.9609,0 0,-81.2773 z" style="fill:none;stroke:#231f20;stroke-width:36;stroke-linecap:round;stroke-linejoin:round;stroke-miterlimit:10;stroke-dasharray:none;stroke-opacity:1" id="path138-8" inkscape:connector-curvature="0"/><path d="m 4747.13,1637.28 -1399.93,0 c -38.38,0 -69.61,31.29 -69.61,69.68 l 0,230.41" style="fill:none;stroke:#a7a5a6;stroke-width:36;stroke-linecap:round;stroke-linejoin:round;stroke-miterlimit:10;stroke-dasharray:none;stroke-opacity:1" id="path140" inkscape:connector-curvature="0"/></g></g></g></svg>