<?xml version="1.0" encoding="UTF-8" standalone="no"?>
<!-- Created with Inkscape (http://www.inkscape.org/) -->
<svg id="Wikimedia_Portugal_logo" xmlns="http://www.w3.org/2000/svg" xml:space="preserve" height="400" width="400" version="1.0" viewBox="0 0 400 400">
<rect id="background" height="400" width="400" y="0" x="0" fill="none"/><g id="g4010" transform="matrix(.78366 0 0 .78366 -924.83 42.157)"><path id="path7" fill="#900" d="m1378.1 22.588c0-31.615 25.629-57.241 57.248-57.241s57.247 25.626 57.247 57.241c0 31.612-25.629 57.236-57.247 57.236s-57.248-25.624-57.248-57.236z"/><path id="path9" fill="#396" d="m1504.6 57.047c21.396 19.074 34.867 46.838 34.867 77.754 0 53.36-40.143 97.343-91.876 103.42v-124.16l57.009-57.004z"/><path id="path11" fill="#396" d="m1331.2 134.8c0-30.917 13.472-58.68 34.866-77.754l57.009 57.004v124.16c-51.736-6.072-91.875-50.055-91.875-103.42z"/><path id="path13" fill="#069" d="m1262.2 137.35c0-50.623 21.727-96.17 56.364-127.83l31.644 31.641c-25.724 23.247-41.889 56.873-41.889 94.271 0 70.162 56.885 127.04 127.06 127.04 70.173 0 127.05-56.879 127.05-127.04 0-37.398-16.162-71.024-41.885-94.271l31.646-31.641c34.639 31.661 56.36 77.21 56.36 127.83 0 95.628-77.527 173.15-173.18 173.15-95.643 0-173.17-77.524-173.17-173.15z"/></g><g id="text3187" fill="#404040" transform="scale(1.0064 .99359)"><path id="path2845" d="m54.709 320.87-12.6 26.571h-4.375l-17.908-41.271h10.762l9.5958 22.517 10.471-22.517h8.1666l10.471 22.517 9.5374-22.517h10.762l-17.85 41.271h-4.375l-12.658-26.571"/><path id="path2847" d="m104.7 306.17v40.746h-10.15v-40.746h10.15"/><path id="path2849" d="m148.36 306.17-13.271 19.133 17.996 21.612h-12.717l-16.129-19.104v19.104h-10.15v-40.746h10.15v18.346l12.95-18.346h11.171"/><path id="path2851" d="m167.58 306.17v40.746h-10.15v-40.746h10.15"/><path id="path2853" d="m198.94 321.28 13.096-15.108h8.8374v40.746h-10.15v-25.433l-10.996 12.775h-1.5458l-10.996-12.775v25.433h-10.15v-40.746h8.8374l13.067 15.108"/><path id="path2855" d="m260.04 339.45v7.4666h-30.042v-40.746h29.633v7.4666h-19.483v8.5458h18.579v7.4666h-18.579v9.8h19.892"/><path id="path2857" d="m267.74 306.17h17.967c6.9416 0.00004 12.425 1.9056 16.45 5.7166 4.0444 3.7917 6.0666 8.7014 6.0666 14.729-0.00005 6.3194-2.0514 11.287-6.1541 14.904-4.0833 3.5972-9.9166 5.3958-17.5 5.3958h-16.829v-40.746m10.15 7.4666v25.812h6.6208c4.2972 0 7.5833-1.1764 9.8583-3.5292 2.275-2.3722 3.4124-5.493 3.4125-9.3624-0.00003-4.0055-1.157-7.1555-3.4708-9.45-2.2945-2.3138-5.6-3.4708-9.9166-3.4708h-6.5041"/><path id="path2859" d="m326.25 306.17v40.746h-10.15v-40.746h10.15"/><path id="path2861" d="m359.53 306.17 18.083 40.746h-10.908l-3.3542-8.05h-18.229l-3.0333 8.05h-10.762l16.421-40.746h11.783m0.81667 25.579-6.5625-15.837-5.9791 15.837h12.542"/></g><g id="text3963" fill="#666" transform="scale(.99272 1.0073)"><path id="path2864" d="m96.238 357.12h11.041c2.5048 0.00002 4.4957 0.72666 5.9726 2.1799 1.4769 1.4533 2.2153 3.1724 2.2154 5.1573-0.00003 2.0558-0.73257 3.8163-2.1976 5.2814-1.4533 1.4651-3.4382 2.1976-5.9548 2.1976h-4.9092v9.9425h-6.1675v-24.759m6.1675 4.537v5.7422h2.8711c2.5639 0.00001 3.8458-0.95702 3.8458-2.8711-0.00001-1.0752-0.34265-1.8195-1.0279-2.2331-0.68529-0.42533-1.855-0.638-3.5091-0.63802h-2.1799"/><path id="path2866" d="m132.94 356.8c4.218 0.00002 7.6326 1.2761 10.244 3.8281 2.6111 2.5403 3.9167 5.5 3.9167 8.8791-0.00003 3.4264-1.3233 6.3979-3.9699 8.9146-2.6466 2.5166-6.0435 3.775-10.191 3.775-4.1944 0-7.609-1.2524-10.244-3.7572-2.6348-2.5048-3.9522-5.4822-3.9522-8.9323 0-3.3909 1.3056-6.3566 3.9167-8.8968 2.623-2.5402 6.0494-3.8104 10.279-3.8104m0 20.257c2.3394 0.00001 4.2239-0.69118 5.6536-2.0736 1.4296-1.3942 2.1444-3.2196 2.1444-5.4763-0.00002-2.2685-0.71484-4.094-2.1444-5.4763-1.4297-1.3824-3.3142-2.0735-5.6536-2.0736-2.3512 0.00002-4.2476 0.6912-5.689 2.0736-1.4296 1.3824-2.1445 3.2078-2.1445 5.4763 0 2.2567 0.71481 4.0822 2.1445 5.4763 1.4414 1.3824 3.3378 2.0736 5.689 2.0736"/><path id="path2868" d="m151.57 357.12h11.059c2.3985 0.00002 4.348 0.69712 5.8485 2.0913 1.5005 1.3824 2.2508 3.0602 2.2508 5.0333-0.00002 2.7293-1.4178 4.7497-4.2535 6.0612 1.2524 0.55533 2.4339 2.0736 3.5446 4.5548 1.1224 2.4812 2.2035 4.8206 3.2433 7.0182h-6.7878c-0.40173-0.81525-1.1047-2.369-2.109-4.6611-0.99249-2.2921-1.8491-3.7631-2.5698-4.413-0.70892-0.64982-1.471-0.97474-2.2862-0.97475h-1.7723v10.049h-6.1675v-24.759m6.1675 4.537v5.6358h3.261c1.0397 0.00002 1.8609-0.24219 2.4635-0.72663 0.61438-0.49622 0.92157-1.1992 0.92159-2.109-0.00002-1.8668-1.1756-2.8002-3.5268-2.8002h-3.1192"/><path id="path2870" d="m196.32 357.12v4.537h-8.9677v20.222h-6.1675v-20.222h-8.9677v-4.537h24.103"/><path id="path2872" d="m218.42 357.12h6.1675v14.054c-0.00002 3.6154-1.0693 6.3566-3.2078 8.2234-2.1386 1.8668-5.1928 2.8002-9.1627 2.8002-3.9227 0-6.971-0.94522-9.145-2.8356-2.1622-1.8904-3.2433-4.6079-3.2433-8.1525v-14.09h6.1852v14.231c0 1.725 0.56122 3.1074 1.6837 4.1471 1.1342 1.0397 2.617 1.5596 4.4484 1.5596 1.9022 0.00001 3.4205-0.53168 4.5548-1.595 1.146-1.0634 1.7191-2.5757 1.7191-4.537v-13.806"/><path id="path2874" d="m253.6 358.84v5.4054c-3.1547-1.5241-6.2384-2.2862-9.2513-2.2862-2.9066 0.00002-5.1455 0.73256-6.7169 2.1976-1.5714 1.4651-2.3571 3.3319-2.3571 5.6004-0.00001 2.174 0.7857 3.9345 2.3571 5.2814s3.6391 2.0204 6.203 2.0204c1.3587 0.00001 2.7234-0.29537 4.094-0.88614v-2.8888h-3.58v-4.537h9.7652v10.12c-0.98069 0.98067-2.4753 1.7841-4.4839 2.4103-1.9968 0.61439-3.9758 0.92159-5.9371 0.92159-4.3126 0-7.8571-1.1874-10.634-3.5623-2.7648-2.3867-4.1471-5.4173-4.1471-9.0918 0-3.7572 1.3824-6.8173 4.1471-9.1804 2.7766-2.3748 6.3684-3.5623 10.775-3.5623 3.639 0.00002 6.8941 0.6794 9.7652 2.0381"/><path id="path2876" d="m273.94 357.12 10.988 24.759h-6.6283l-2.0381-4.8915h-11.077l-1.8432 4.8915h-6.5397l9.9779-24.759h7.16m0.49623 15.543-3.9876-9.6235-3.6332 9.6235h7.6208"/><path id="path2878" d="m306.7 377.34v4.537h-18.875v-24.759h6.1675v20.222h12.707"/></g></svg>
